$MeshFormat
4.1 0 8
$EndMeshFormat
$Entities
2 3 3 1
1 5 2.5 3.5 0 
2 0 2.5 3.5 0 
1 4.9999999 1.4999999 1.4999999 5.0000001 3.5000001 3.5000001 0 2 1 -1 
2 -9.999999983634211e-08 2.499999900000001 3.4999999 5.0000001 2.5000001 3.5000001 0 2 2 -1 
3 -1e-07 1.4999999 1.4999999 1e-07 3.5000001 3.5000001 0 2 2 -2 
1 -9.999999983634211e-08 1.4999999 1.4999999 5.0000001 3.5000001 3.5000001 0 4 1 -2 3 2 
2 4.9999999 1.4999999 1.4999999 5.0000001 3.5000001 3.5000001 0 1 1 
3 -1e-07 1.4999999 1.4999999 1e-07 3.5000001 3.5000001 0 1 3 
1 -9.999999983634211e-08 1.4999999 1.4999999 5.0000001 3.5000001 3.5000001 0 3 1 2 3 
$EndEntities
$Nodes
9 206 1 206
0 1 0 1
1
5 2.5 3.5
0 2 0 1
2
0 2.5 3.5
1 1 0 12
3
4
5
6
7
8
9
10
11
12
13
14
5 2.035276827956232 3.38545602565321
5 1.677016134106344 3.068064746731156
5 1.507291125901946 2.620536680255323
5 1.564983757314585 2.145395112957464
5 1.836877341759204 1.751489251828899
5 2.260684335712442 1.529058182573948
5 2.739315664287557 1.529058182573948
5 3.163122658240795 1.751489251828899
5 3.435016242685415 2.145395112957464
5 3.492708874098054 2.620536680255322
5 3.322983865893657 3.068064746731156
5 2.964723172043769 3.38545602565321
1 2 0 9
15
16
17
18
19
20
21
22
23
0.5 2.5 3.5
1 2.5 3.5
1.5 2.5 3.5
2 2.5 3.5
2.5 2.5 3.5
3 2.5 3.5
3.5 2.5 3.5
4 2.5 3.5
4.5 2.5 3.5
1 3 0 12
24
25
26
27
28
29
30
31
32
33
34
35
0 2.035276827956232 3.38545602565321
0 1.677016134106344 3.068064746731156
0 1.507291125901946 2.620536680255323
0 1.564983757314585 2.145395112957464
0 1.836877341759204 1.751489251828899
0 2.260684335712442 1.529058182573948
0 2.739315664287557 1.529058182573948
0 3.163122658240795 1.751489251828899
0 3.435016242685415 2.145395112957464
0 3.492708874098054 2.620536680255322
0 3.322983865893657 3.068064746731156
0 2.964723172043769 3.38545602565321
2 1 0 141
36
37
38
39
40
41
42
43
44
45
46
47
48
49
50
51
52
53
54
55
56
57
58
59
60
61
62
63
64
65
66
67
68
69
70
71
72
73
74
75
76
77
78
79
80
81
82
83
84
85
86
87
88
89
90
91
92
93
94
95
96
97
98
99
100
101
102
103
104
105
106
107
108
109
110
111
112
113
114
115
116
117
118
119
120
121
122
123
124
125
126
127
128
129
130
131
132
133
134
135
136
137
138
139
140
141
142
143
144
145
146
147
148
149
150
151
152
153
154
155
156
157
158
159
160
161
162
163
164
165
166
167
168
169
170
171
172
173
174
175
176
4.595883868703185 2.050426543691173 1.606756635970613
0.4494097883841818 2.996592325292484 1.632016093201836
2.25 2.077257835672854 3.40625
2.747221294821633 2.923593452083141 3.405852409254558
4.595456492223041 3.313503463571861 1.9184399302251
0.3667900051491709 1.669846726183855 1.942464761676595
1.74719729116987 2.922525713321474 3.406350937320738
3.25 2.07725783567536 3.406250000001169
3.749456870929474 2.921643338882352 3.406761762965412
1.296386277396035 2.077669138868576 3.406441748672241
4.604481290477105 1.553054768956063 2.821394974141078
0.4035252621338143 3.431030261242322 2.864941985322399
0.468262619619275 1.563064448682462 2.849502178358448
4.602801055076947 3.431173672966684 2.864575905366406
0.7359353429243829 2.957908527073961 3.388999314303985
4.25 2.07725783567312 3.406250000000124
1.247271503934762 2.927281007291468 3.404118875374245
1.497353219461742 3.263813260729452 3.1454372957413
1.991538061727844 3.26530907318349 3.143662972760612
1.742907231305982 3.463398653474893 2.768072815635533
2.233560907217307 3.464378325159102 2.764526834108233
1.986252656419289 3.487601479968604 2.343018100521673
2.474475642960021 3.486988835644095 2.339211199662682
2.22773626535009 3.333619707449522 1.947661169795411
2.714555248335028 3.331414797361079 1.944347739382773
2.467680301049147 3.030194930907804 1.65212422181096
2.954061702319819 3.026669394831722 1.64992979787103
1.979999236416386 3.033092581880446 1.653943087526589
2.707307051290119 2.63200741744903 1.508751271507278
3.193714499805241 2.62820039551187 1.508251716114114
2.947683220076719 2.210570048133497 1.542800802882413
2.460411348739824 2.213987281889761 1.54177417845312
2.701004045750883 1.842658710204977 1.746406987339575
2.213549161476172 1.845602933837751 1.74384890412151
3.188808393676718 1.83981366827019 1.74889813780211
3.219050467530902 3.332046137752784 1.945293568947795
1.496807623071923 3.488088477046902 2.346113153495386
2.941307932510058 1.589272335571212 2.086992589359363
3.429226266980374 1.587691595560997 2.090496184157021
3.181990495799136 1.50013180991374 2.483764161443664
2.69362327079607 1.500278279110062 2.476410155132778
3.670593869820594 1.500010882319923 2.495334753873399
3.658638867485911 1.829351459587629 1.758224740745045
2.735304710169121 3.464378220605908 2.76452721527469
1.973281816686772 2.217235655230342 1.5408105894418
1.726605958129274 1.84841755289688 1.741422176288346
1.486635755867176 2.219512909619209 1.540142202131108
1.966436538462646 1.593023946473985 2.078817808626271
1.479393276896365 1.594514740471375 2.075622285250064
1.719823387665055 1.50006018645206 2.489028706470427
1.243130500453284 1.500031364311112 2.492079921811985
2.963606617374209 1.579626893855072 2.891041360325397
1.49730548098932 1.579832634575603 2.891525247727301
1.950350579181248 1.573196099809954 2.875545643820453
1.035167016986738 1.587960649138674 2.089897302519905
0.9831721928168042 1.582712043278115 2.898224565356017
1.70052376436072 1.824463415290382 3.237326469563425
2.244744093230377 2.923397883276497 3.405943835144862
1.035591207324265 3.280515578098619 3.125136331007389
3.752325551874253 2.078504390956118 3.406830442561743
4.045164963334226 1.777949854295451 3.191840723785496
3.478236985542297 1.734550611361636 3.143496102111858
3.41309359578223 2.194591323324119 1.547778628568395
3.719919774497834 2.571406068113587 1.502552671347225
3.250224136762639 2.921478983544475 3.406838169923563
3.500329429141786 3.262933502505581 3.146476968464127
3.960211596712062 3.275983508889046 3.130753195736847
3.730187836052061 3.465460507336802 2.76054943633208
3.238769507344776 3.464011588832197 2.765860220035309
3.480492623553197 3.487302983088293 2.341151582995115
3.990574703158736 3.490626394886839 2.363400784213437
3.755830094037867 3.327457471498988 1.938471609924751
2.992392831650478 3.26466219501437 3.144431321023277
2.74858606679996 2.078015690070843 3.406603133776634
2.544735200999163 1.756625424303484 3.168875354762025
1.251521239911881 1.85054119430258 1.73960322219115
1.00796998022427 2.227700560541039 1.537787437584431
1.248502562207564 2.643847404553788 1.510400119137467
2.219918647717189 2.635285226764321 1.509193304716139
1.259404373256682 3.464307676721848 2.764784260512802
1.020377553219515 3.487199420532728 2.340509235064076
1.254297204798512 3.336623535639855 1.952221705784659
0.7669075153793639 3.329945102285645 1.942154925456835
0.4798586162359584 3.490046989316708 2.359262801843568
1.73964136334644 3.335624318250527 1.950698626664431
1.4936016227636 3.036073270363544 1.655828543006971
1.733656606943114 2.639065054970103 1.509716752395476
0.9962006278086701 3.029938989953058 1.651964230160347
0.7643585936690829 2.644764458901187 1.510533855334582
0.5440320716124569 2.241997583453545 1.533855728653226
4.258008086641573 2.960481289788488 3.387669410171788
0.7455333188075037 2.056343921790208 3.396197123554582
2.977108033315507 3.487191104956124 2.340457772688526
3.440999121450285 3.018933411724375 1.645185333422443
2.490793649802793 3.264630353382772 3.144469101420492
2.453645809819692 1.592669036836572 2.079582917467754
2.204768683794973 1.500602720782095 2.465285762404332
4.588035423640777 2.50308217388658 1.500004749909214
4.176497596219707 2.294662703378754 1.521308733759068
4.176425069671 2.750121407486045 1.53178551884554
4.172469337628594 1.83611297826458 1.752167116013695
3.915818133940522 1.586637507426178 2.092852659152323
4.417762887825539 1.578191196302937 2.112355150393315
4.19807891804457 1.500463093451148 2.53042979537808
4.587562689342726 2.964723172043768 1.61454397434679
4.51292508940059 3.492599628851021 2.378566986347144
0.3985235619683112 1.508258399212324 2.371747915154967
4.172214993162932 3.162441359582618 1.750886226855805
0.7448083905462248 1.825923467690252 1.76133848848795
4.541425840145934 1.802097786436329 3.216193060775465
0.3583410093841167 3.172280332154452 3.240296666883149
0.3742770740357811 1.827828857232288 3.240395809571035
4.641279621505854 3.172732031929584 3.239886216398098
4.185305589258871 3.464668342598062 2.763467244243205
0.8186674877379265 3.469167957254596 2.746401036180762
0.340670268236723 3.325276667884472 1.935271373626675
0.8044420536006009 1.500003039230414 2.497534548400286
4.644064619269442 1.50159118065543 2.443610023452903
3.848905757575329 2.987365315110297 1.626801826829992
0.3515600907331443 2.580709967378607 1.503262370949233
0.9999999999997857 1.813042900479475 3.226697972625731
1.81121804625056 2.108603049298607 3.420221944414309
3.843125270432092 1.569611535133653 2.866575100686942
4.220969380134513 3.395358039189524 2.054652964915347
2.998780273508876 1.819368184716808 3.232625642483463
3.427510647793666 1.542056505411944 2.786956897767632
2.444732516845127 1.547637192999062 2.804967348811795
4.643786367364772 1.739932404221473 1.850155980371097
3.823072966889359 2.131834039956424 1.570239909511495
2.120398235746608 1.783537317367294 3.197625418397829
0.3364163033261747 1.942087327183971 1.670100337684564
4.647469923899762 2.160353455220255 3.440553148216081
0.3402579166106715 2.837146062198996 3.441452352880225
0.3525300761003348 2.160353455220158 3.440553148216046
4.65927299158552 2.837386663107146 3.441366155944341
0.6971489865081124 1.71144091946058 3.114959003917192
1.337003336504692 1.764813503658977 3.177864894796752
0.6580553751467422 3.315929356715853 3.078151610608544
4.33939866341685 3.316144746359062 3.077847517075658
4.242864703310457 1.59819927363269 2.932152114334052
0.6585365919513722 1.564885089821236 2.145655387001069
2 2 0 15
177
178
179
180
181
182
183
184
185
186
187
188
189
190
191
5 3.082932598765394 2.437450577165225
5 1.947622109282164 2.432929181020912
5 2.633163594387131 3.040265940109415
5 2.50270749203494 1.938047845908752
5 2.131015391517419 2.916497524140741
5 3.174883334148912 2.755949487877808
5 2.818269281965166 2.708559738412232
5 2.652949362833165 2.327355858552229
5 2.410715107350214 2.61311902186846
5 2.93613905316049 2.06431967841116
5 2.331975940720046 2.247368238343269
5 2.074141829470564 2.007381302105541
5 2.324863953465195 3.210554872475841
5 2.978633856945529 3.040265940109415
5 1.815736190201968 2.759507033037033
2 3 0 15
192
193
194
195
196
197
198
199
200
201
202
203
204
205
206
0 3.082932598765394 2.437450577165225
0 1.947622109282164 2.432929181020912
0 2.633163594387131 3.040265940109415
0 2.50270749203494 1.938047845908752
0 2.131015391517419 2.916497524140741
0 3.174883334148912 2.755949487877808
0 2.818269281965166 2.708559738412232
0 2.652949362833165 2.327355858552229
0 2.410715107350214 2.61311902186846
0 2.93613905316049 2.06431967841116
0 2.331975940720046 2.247368238343269
0 2.074141829470564 2.007381302105541
0 2.324863953465195 3.210554872475841
0 2.978633856945529 3.040265940109415
0 1.815736190201968 2.759507033037033
3 1 0 0
$EndNodes
$Elements
6 364 1 364
0 1 15 1
1 1 
0 2 15 1
2 2 
1 1 1 13
3 1 3 
4 3 4 
5 4 5 
6 5 6 
7 6 7 
8 7 8 
9 8 9 
10 9 10 
11 10 11 
12 11 12 
13 12 13 
14 13 14 
15 14 1 
1 2 1 10
16 2 15 
17 15 16 
18 16 17 
19 17 18 
20 18 19 
21 19 20 
22 20 21 
23 21 22 
24 22 23 
25 23 1 
1 3 1 13
26 2 24 
27 24 25 
28 25 26 
29 26 27 
30 27 28 
31 28 29 
32 29 30 
33 30 31 
34 31 32 
35 32 33 
36 33 34 
37 34 35 
38 35 2 
2 1 2 326
39 118 123 37 
40 33 119 32 
41 99 135 134 
42 47 119 33 
43 96 145 51 
44 37 151 118 
45 96 175 145 
46 123 124 37 
47 87 161 97 
48 97 160 87 
49 106 149 141 
50 134 164 99 
51 6 153 138 
52 138 163 6 
53 107 129 71 
54 141 159 106 
55 105 107 71 
56 71 128 105 
57 105 128 104 
58 48 152 91 
59 157 165 38 
60 104 128 79 
61 92 165 157 
62 79 108 104 
63 119 151 32 
64 91 171 48 
65 79 130 108 
66 108 130 39 
67 139 153 46 
68 136 137 78 
69 39 130 93 
70 97 158 96 
71 141 149 49 
72 39 93 19 
73 136 138 137 
74 97 161 158 
75 113 123 121 
76 112 125 124 
77 19 93 18 
78 43 97 95 
79 44 126 102 
80 63 122 121 
81 95 97 96 
82 42 53 52 
83 52 94 50 
84 112 124 113 
85 43 95 21 
86 42 52 17 
87 121 122 113 
88 100 108 39 
89 162 165 89 
90 72 116 115 
91 95 96 51 
92 53 94 52 
93 113 124 123 
94 20 100 39 
95 114 122 63 
96 70 98 78 
97 20 109 43 
98 16 127 45 
99 120 121 117 
100 72 120 117 
101 102 103 101 
102 22 126 44 
103 107 154 129 
104 72 115 55 
105 53 115 94 
106 111 112 82 
107 47 150 119 
108 44 102 101 
109 81 111 82 
110 54 55 53 
111 16 52 50 
112 22 95 51 
113 44 101 100 
114 104 108 101 
115 55 115 53 
116 16 50 15 
117 22 51 23 
118 103 105 104 
119 42 54 53 
120 63 121 120 
121 117 123 118 
122 72 117 116 
123 46 175 139 
124 117 118 116 
125 38 110 109 
126 54 56 55 
127 103 106 105 
128 101 108 100 
129 15 127 16 
130 70 78 74 
131 56 57 55 
132 57 120 72 
133 23 126 22 
134 44 100 21 
135 80 122 114 
136 38 109 19 
137 18 93 42 
138 74 137 77 
139 103 104 101 
140 106 107 105 
141 66 98 70 
142 86 90 84 
143 121 123 117 
144 57 72 55 
145 118 119 116 
146 90 111 84 
147 18 38 19 
148 20 39 19 
149 84 111 81 
150 22 44 21 
151 16 45 17 
152 18 42 17 
153 20 43 21 
154 56 58 57 
155 78 137 74 
156 81 82 80 
157 112 113 82 
158 58 59 57 
159 65 99 98 
160 58 60 59 
161 17 52 16 
162 21 95 22 
163 60 71 62 
164 65 98 66 
165 71 129 62 
166 21 100 20 
167 92 157 45 
168 19 109 20 
169 69 80 67 
170 67 114 64 
171 69 81 80 
172 64 114 61 
173 63 120 59 
174 62 65 64 
175 61 114 63 
176 60 62 61 
177 80 114 67 
178 65 129 99 
179 61 63 59 
180 82 122 80 
181 70 74 73 
182 74 77 75 
183 59 120 57 
184 60 128 71 
185 60 61 59 
186 62 129 65 
187 66 70 68 
188 138 139 137 
189 31 37 30 
190 7 36 8 
191 83 84 81 
192 68 69 67 
193 85 86 84 
194 42 93 54 
195 62 64 61 
196 88 91 86 
197 56 79 58 
198 113 122 82 
199 58 128 60 
200 8 133 9 
201 36 133 8 
202 66 67 64 
203 65 66 64 
204 69 83 81 
205 70 73 68 
206 66 68 67 
207 79 128 58 
208 68 131 69 
209 36 134 133 
210 74 75 73 
211 137 139 77 
212 36 136 134 
213 10 40 11 
214 28 41 27 
215 9 140 10 
216 134 135 133 
217 83 85 84 
218 133 140 9 
219 73 131 68 
220 135 140 133 
221 69 131 83 
222 75 87 76 
223 75 76 73 
224 34 47 33 
225 4 46 5 
226 85 88 86 
227 11 141 12 
228 27 142 26 
229 93 130 54 
230 54 130 56 
231 76 131 73 
232 56 130 79 
233 89 92 88 
234 85 89 88 
235 10 140 40 
236 12 49 13 
237 26 48 25 
238 140 143 40 
239 40 141 11 
240 41 142 27 
241 131 132 83 
242 85 132 89 
243 135 143 140 
244 83 132 85 
245 112 144 125 
246 12 141 49 
247 26 142 48 
248 76 132 131 
249 142 152 48 
250 29 155 125 
251 90 144 111 
252 125 166 29 
253 110 165 162 
254 145 175 46 
255 143 154 107 
256 4 145 46 
257 34 146 47 
258 48 147 25 
259 49 148 13 
260 78 164 136 
261 90 176 144 
262 87 160 110 
263 115 150 94 
264 102 149 103 
265 111 144 112 
266 107 159 143 
267 119 150 116 
268 86 152 90 
269 3 145 4 
270 35 146 34 
271 43 160 97 
272 25 147 24 
273 13 148 14 
274 110 162 87 
275 31 151 37 
276 5 153 6 
277 136 164 134 
278 118 151 119 
279 144 176 41 
280 110 160 109 
281 18 157 38 
282 45 157 17 
283 94 173 50 
284 99 164 98 
285 126 174 102 
286 30 155 29 
287 45 172 92 
288 6 163 7 
289 29 166 28 
290 106 159 107 
291 136 163 138 
292 87 162 76 
293 75 161 87 
294 36 163 136 
295 40 159 141 
296 138 153 139 
297 88 172 91 
298 23 167 1 
299 15 168 2 
300 2 169 15 
301 1 170 23 
302 1 167 3 
303 2 168 35 
304 24 169 2 
305 14 170 1 
306 132 162 89 
307 50 173 146 
308 148 174 126 
309 147 171 127 
310 99 154 135 
311 116 150 115 
312 103 149 106 
313 32 151 31 
314 91 152 86 
315 46 153 5 
316 144 166 125 
317 127 171 156 
318 91 172 156 
319 135 154 143 
320 124 155 37 
321 125 155 124 
322 129 154 99 
323 127 156 45 
324 109 160 43 
325 37 155 30 
326 152 176 90 
327 150 173 94 
328 17 157 18 
329 102 174 149 
330 158 161 77 
331 50 168 15 
332 51 167 23 
333 98 164 78 
334 15 169 127 
335 23 170 126 
336 77 161 75 
337 89 165 92 
338 41 166 144 
339 139 158 77 
340 7 163 36 
341 143 159 40 
342 76 162 132 
343 38 165 110 
344 28 166 41 
345 92 172 88 
346 48 171 147 
347 41 176 142 
348 146 173 47 
349 145 167 51 
350 146 168 50 
351 49 174 148 
352 127 169 147 
353 126 170 148 
354 3 167 145 
355 35 168 146 
356 147 169 24 
357 148 170 14 
358 139 175 158 
359 47 173 150 
360 149 174 49 
361 142 176 152 
362 156 172 45 
363 156 171 91 
364 158 175 96 
$EndElements
