$MeshFormat
4.1 0 8
$EndMeshFormat
$Entities
2 3 3 1
1 5 2.5 3.5 0 
2 0 2.5 3.5 0 
1 4.9999999 1.4999999 1.4999999 5.0000001 3.5000001 3.5000001 0 2 1 -1 
2 -9.999999983634211e-08 2.499999900000001 3.4999999 5.0000001 2.5000001 3.5000001 0 2 2 -1 
3 -1e-07 1.4999999 1.4999999 1e-07 3.5000001 3.5000001 0 2 2 -2 
1 -9.999999983634211e-08 1.4999999 1.4999999 5.0000001 3.5000001 3.5000001 0 4 1 -2 3 2 
2 4.9999999 1.4999999 1.4999999 5.0000001 3.5000001 3.5000001 0 1 1 
3 -1e-07 1.4999999 1.4999999 1e-07 3.5000001 3.5000001 0 1 3 
1 -9.999999983634211e-08 1.4999999 1.4999999 5.0000001 3.5000001 3.5000001 0 3 1 2 3 
$EndEntities
$Nodes
9 766 1 766
0 1 0 1
1
5 2.5 3.5
0 2 0 1
2
0 2.5 3.5
1 1 0 25
3
4
5
6
7
8
9
10
11
12
13
14
15
16
17
18
19
20
21
22
23
24
25
26
27
5 2.260684335712442 3.470941817426052
5 2.035276827956232 3.38545602565321
5 1.836877341759205 3.248510748171101
5 1.677016134106344 3.068064746731156
5 1.564983757314585 2.854604887042536
5 1.507291125901946 2.620536680255323
5 1.507291125901946 2.379463319744677
5 1.564983757314585 2.145395112957464
5 1.677016134106343 1.931935253268844
5 1.836877341759204 1.751489251828899
5 2.035276827956231 1.61454397434679
5 2.260684335712442 1.529058182573948
5 2.5 1.5
5 2.739315664287557 1.529058182573948
5 2.964723172043768 1.61454397434679
5 3.163122658240795 1.751489251828899
5 3.322983865893656 1.931935253268844
5 3.435016242685415 2.145395112957464
5 3.492708874098054 2.379463319744676
5 3.492708874098054 2.620536680255322
5 3.435016242685415 2.854604887042536
5 3.322983865893657 3.068064746731156
5 3.163122658240796 3.248510748171101
5 2.964723172043769 3.38545602565321
5 2.739315664287559 3.470941817426052
1 2 0 19
28
29
30
31
32
33
34
35
36
37
38
39
40
41
42
43
44
45
46
0.25 2.5 3.5
0.5 2.5 3.5
0.75 2.5 3.5
1 2.5 3.5
1.25 2.5 3.5
1.5 2.5 3.5
1.75 2.5 3.5
2 2.5 3.5
2.25 2.5 3.5
2.5 2.5 3.5
2.75 2.5 3.5
3 2.5 3.5
3.25 2.5 3.5
3.5 2.5 3.5
3.75 2.5 3.5
4 2.5 3.5
4.25 2.5 3.5
4.5 2.5 3.5
4.75 2.5 3.5
1 3 0 25
47
48
49
50
51
52
53
54
55
56
57
58
59
60
61
62
63
64
65
66
67
68
69
70
71
0 2.260684335712442 3.470941817426052
0 2.035276827956232 3.38545602565321
0 1.836877341759205 3.248510748171101
0 1.677016134106344 3.068064746731156
0 1.564983757314585 2.854604887042536
0 1.507291125901946 2.620536680255323
0 1.507291125901946 2.379463319744677
0 1.564983757314585 2.145395112957464
0 1.677016134106343 1.931935253268844
0 1.836877341759204 1.751489251828899
0 2.035276827956231 1.61454397434679
0 2.260684335712442 1.529058182573948
0 2.5 1.5
0 2.739315664287557 1.529058182573948
0 2.964723172043768 1.61454397434679
0 3.163122658240795 1.751489251828899
0 3.322983865893656 1.931935253268844
0 3.435016242685415 2.145395112957464
0 3.492708874098054 2.379463319744676
0 3.492708874098054 2.620536680255322
0 3.435016242685415 2.854604887042536
0 3.322983865893657 3.068064746731156
0 3.163122658240796 3.248510748171101
0 2.964723172043769 3.38545602565321
0 2.739315664287559 3.470941817426052
2 1 0 576
72
73
74
75
76
77
78
79
80
81
82
83
84
85
86
87
88
89
90
91
92
93
94
95
96
97
98
99
100
101
102
103
104
105
106
107
108
109
110
111
112
113
114
115
116
117
118
119
120
121
122
123
124
125
126
127
128
129
130
131
132
133
134
135
136
137
138
139
140
141
142
143
144
145
146
147
148
149
150
151
152
153
154
155
156
157
158
159
160
161
162
163
164
165
166
167
168
169
170
171
172
173
174
175
176
177
178
179
180
181
182
183
184
185
186
187
188
189
190
191
192
193
194
195
196
197
198
199
200
201
202
203
204
205
206
207
208
209
210
211
212
213
214
215
216
217
218
219
220
221
222
223
224
225
226
227
228
229
230
231
232
233
234
235
236
237
238
239
240
241
242
243
244
245
246
247
248
249
250
251
252
253
254
255
256
257
258
259
260
261
262
263
264
265
266
267
268
269
270
271
272
273
274
275
276
277
278
279
280
281
282
283
284
285
286
287
288
289
290
291
292
293
294
295
296
297
298
299
300
301
302
303
304
305
306
307
308
309
310
311
312
313
314
315
316
317
318
319
320
321
322
323
324
325
326
327
328
329
330
331
332
333
334
335
336
337
338
339
340
341
342
343
344
345
346
347
348
349
350
351
352
353
354
355
356
357
358
359
360
361
362
363
364
365
366
367
368
369
370
371
372
373
374
375
376
377
378
379
380
381
382
383
384
385
386
387
388
389
390
391
392
393
394
395
396
397
398
399
400
401
402
403
404
405
406
407
408
409
410
411
412
413
414
415
416
417
418
419
420
421
422
423
424
425
426
427
428
429
430
431
432
433
434
435
436
437
438
439
440
441
442
443
444
445
446
447
448
449
450
451
452
453
454
455
456
457
458
459
460
461
462
463
464
465
466
467
468
469
470
471
472
473
474
475
476
477
478
479
480
481
482
483
484
485
486
487
488
489
490
491
492
493
494
495
496
497
498
499
500
501
502
503
504
505
506
507
508
509
510
511
512
513
514
515
516
517
518
519
520
521
522
523
524
525
526
527
528
529
530
531
532
533
534
535
536
537
538
539
540
541
542
543
544
545
546
547
548
549
550
551
552
553
554
555
556
557
558
559
560
561
562
563
564
565
566
567
568
569
570
571
572
573
574
575
576
577
578
579
580
581
582
583
584
585
586
587
588
589
590
591
592
593
594
595
596
597
598
599
600
601
602
603
604
605
606
607
608
609
610
611
612
613
614
615
616
617
618
619
620
621
622
623
624
625
626
627
628
629
630
631
632
633
634
635
636
637
638
639
640
641
642
643
644
645
646
647
4.80682173377027 2.607342847749221 1.505777935752235
0.2233601563009779 1.909466285673278 1.692987030932287
0.2319251533342822 3.060741799347876 1.672009278757239
2.375 2.715234020531271 3.476562499999844
2.375 2.284765979469514 3.476562500000016
4.769949351779825 1.732700564749142 1.858711003787127
4.796039517386383 3.385492209126739 2.035345776328411
3.375 2.284765979469039 3.476562499999912
3.351976894229447 2.731821824025555 3.472758264886742
1.373426298937107 2.715602217539232 3.476481276723812
1.375 2.28476597946944 3.4765625
4.784883972616215 3.476876543354461 2.713804160492352
4.763606361941929 1.522451057026712 2.710708481300128
0.2086483006017654 3.5 2.499999999999999
0.2248435625828556 1.500245853901983 2.47782687753552
0.2241871571416817 3.252459904441384 3.158638058578505
0.2370085344659699 1.763240911584986 3.176155341351289
4.098698926467755 2.725233197663202 3.474304883837913
4.170186072343399 2.267723905053537 3.472649893700925
0.8737395634074467 2.715095135180367 3.476593099925317
0.875 2.284765979471107 3.476562500000368
1.863260930378219 2.248713318206934 3.46791270451081
2.856639968631648 2.259047110475184 3.47053681281528
1.870129061673491 2.716926423969084 3.476187956586223
2.8674526472239 2.716210644647548 3.47634674022147
0.2252144630339105 2.638163635162968 1.509590584698149
4.781208535244853 2.14078718629222 1.566744325241931
4.783667508029406 1.528952813532124 2.261112240470925
4.79530589008449 3.073879457458994 1.681060216922776
4.790200070661857 3.24136768735358 3.171099062842443
4.782067469905645 1.762367032939094 3.175201900104646
0.1870570013052656 3.385157428639837 2.034708342516534
0.2159499350137924 1.613370975880574 2.037518677578182
0.3862914581515675 2.709389364104865 3.477832344627524
4.625 2.715234020530561 3.4765625
4.585767456821064 2.274876110778188 3.474330146563086
0.375 2.284765979469439 3.4765625
0.6269663133506018 2.713887052919527 3.476858397411518
0.7495529568217348 2.918575345799206 3.408182074194968
0.9967085888049281 2.919681422567842 3.407671473359955
0.8720020180121475 3.102742171892491 3.297936008851789
1.118617600832016 3.103684448498016 3.297223360571958
0.9939429569900684 3.258667041865337 3.151478564180971
1.240194810082691 3.259641158719063 3.150342455926075
1.115917719131993 3.379764949008707 2.975408912932548
1.361621981132031 3.380548594705146 2.973955875966099
1.237563771430641 3.460596846514614 2.777945495495393
1.482664258365593 3.46106023029114 2.776338983411209
1.358846829785436 3.4976791748523 2.56809011724203
1.603524917204377 3.497782006141305 2.566566269390978
1.480233405928979 3.489537747095106 2.355725792069605
1.724194829758503 3.48931863483248 2.354230871673054
1.600807235259481 3.436881572567982 2.150353151047309
1.844642356572616 3.436303509063221 2.148808116671387
1.721342408438239 3.342142873117111 1.960745531999912
1.964914494922656 3.341285599452238 1.959409082434519
1.841756001987589 3.209756385595421 1.795552788985204
2.085149078428053 3.208644480563143 1.79443426942106
1.962087947117996 3.045778678314913 1.662070626904137
2.205325331849421 3.044441304531098 1.661201057511112
2.328325822286019 3.207400022047525 1.793186581333403
2.448419265529794 3.043084844525122 1.660322173898153
2.57138751015493 3.206155040837503 1.791942757752042
2.691351788600681 3.042000976936469 1.659622143913874
2.814322630893974 3.204942663611823 1.790735704395133
2.93415556422205 3.040310790976497 1.658534463477944
2.694304098827973 3.338164500447044 1.954582480854935
2.937462024759864 3.337255368503058 1.953187922671043
1.718780525395766 3.046977471802784 1.662852674052987
1.839137334337147 2.858898769550345 1.566623509394388
2.56952455828451 2.855528460782059 1.565334544570123
1.595961845351996 2.860259116016208 1.567147723737986
1.716237088503473 2.656283064046715 1.512287691738039
2.817265366125554 3.433544142188022 2.141537540896636
3.060763744950507 3.432952319982572 2.140000043556758
1.84703809342355 3.497934865012938 2.564233987822709
1.473154024760675 2.65775676924876 1.512521999355837
1.593406558539578 2.446733126181416 1.501419687679757
2.940351120574031 3.487855706745064 2.34462592670844
3.184091968384421 3.487573450209819 2.342841861678519
3.304359921018263 3.432287253918314 2.138281219479206
3.427715547644003 3.487263188492677 2.340904441773901
3.547774473387621 3.43167762446615 2.136713881260086
1.350324876828917 2.448227185085857 1.501341111472057
1.470520017435123 2.23952081801346 1.534520535820869
1.713888059617558 2.237980166337241 1.534937511470195
1.59080928252937 2.0421174202995 1.61098732112145
1.834578632699796 2.040669900124587 1.611734353164301
1.71121550316275 1.864841890513414 1.727617856269692
1.955513994921378 1.863603526562126 1.728637874538918
1.831889555148454 1.715966933913188 1.879280940132726
2.076542947239908 1.715210985485631 1.880236978597814
1.587408460533202 1.716977704915961 1.878006362250124
1.708224636300339 1.603183745291452 2.057596784267415
1.463433448322883 1.603866813185371 2.056214791267828
1.584491693514906 1.53027155830103 2.255814109006915
1.357103024838551 3.437086304901361 2.150902224059915
1.352421313182407 2.86084451291667 1.567374009852861
3.671034344722543 3.486950398709705 2.338975435144962
1.338479787588167 1.53030375602165 2.255686278702404
1.460445287662472 1.500609059891638 2.465103741900827
1.706234497424683 1.500557279998431 2.466619624989157
3.551005460430203 3.498723280050963 2.550515442037522
2.200315702567094 1.862592260218188 1.729473314371111
2.321360011374187 1.714319106407195 1.881368014532702
2.445159877411006 1.861524214069757 1.730358089251399
2.566155808299173 1.713203401646167 1.88278762745807
2.689683740193903 1.860360077225872 1.731325316409141
2.8106890960116 1.712432878368909 1.883771122937493
2.93398677366943 1.859153557091975 1.732330906827602
3.054903722888362 1.711662778499035 1.884756613041523
3.178075102865917 1.857939454926966 1.733346064732908
3.298878777256906 1.710842707237434 1.885808851187468
3.175854064767948 1.599734050840425 2.064659649488117
3.419863959667538 1.599116633436206 2.065938760255324
3.42181490366091 1.856878041479868 1.734236233248641
3.296697415516111 1.528138128385478 2.264448514116512
3.54098188964797 1.527810463355672 2.2658045584575
2.443026432351241 1.601487085734917 2.061052915605005
3.41763316972993 1.500310684787566 2.475074650451905
3.173550050305982 1.500355801198335 2.473326496252323
3.662223587381982 1.500276966317668 2.47646585618732
1.218756257243399 1.60464829766848 2.054640225062872
3.782667998760709 1.528452243133605 2.263156262215199
1.227443212685312 2.24111096736954 1.534092929530141
3.301279508895373 2.032352909731824 1.616084733153845
3.544597150116872 2.031103854296083 1.616746692876833
1.215419950021219 1.500671349704095 2.463363287568817
1.581711883117276 1.516002015091624 2.67817958832665
1.828038151635127 1.516274195087184 2.679676210858956
3.790782557776277 3.43099111951527 2.134958173103816
3.667770042892987 3.334538328679619 1.949050113018772
3.063472848203396 3.498497944224457 2.554789190352961
3.538725034000045 1.517649393114103 2.687048884388305
3.783603457136825 1.517906592607378 2.688394636749432
2.819303800730978 3.498396077277579 2.55661512939792
3.794606982715783 3.498822522660858 2.548513588049117
3.674490725169005 3.466112873492571 2.758119963722155
3.423902957626243 2.227479093878979 1.53785013863381
3.666433236863411 2.226158662748323 1.53822511884942
3.78622223068291 2.030970550961423 1.616817473035971
1.606263153421525 3.381656648854787 2.971891463718243
2.942809376161229 3.464253930029574 2.764979920791223
2.69782963533893 3.463797505580803 2.766635271928196
3.546645466281107 2.434212471190156 1.502166346000951
3.787404710199155 2.434172343624241 1.502168992436056
3.910521812692278 3.333513302734129 1.947500611615502
1.114010274833718 3.49757468942076 2.569604159552967
3.918464019844704 3.466621380979642 2.756209105679345
1.107415120988626 2.449588124886606 1.501271486915713
3.659956680981305 1.579512721181881 2.890772529144532
3.415270291162213 1.578840238218804 2.889184651900881
3.905004630895058 1.580031757606799 2.89199289915503
3.798104872910207 3.390608235469437 2.954771339151903
4.038311883205964 3.498919490488681 2.546474202756313
1.703080669922267 1.576508578874674 2.883619075526655
1.949550256574563 1.57718204744925 2.885236325454963
1.456482336335935 1.575833612974293 2.881990168841885
3.179783595906424 2.229728311370882 1.537215904615388
1.957975233496175 2.236672236974754 1.535293573557157
0.9847383921469057 2.24271372852005 1.533664771154469
4.025004649752479 1.517161827183505 2.684469851343613
3.781371095916087 1.683159742122229 3.076863929458392
0.8703565797215138 3.379296976418134 2.976273899412856
2.821910544229673 3.386036605178193 2.963615286939833
2.576081756531513 3.385225344717611 2.96516243299474
4.026716315720974 1.684040789713277 3.078109476784689
3.787610815703863 3.200323494641062 1.786174389046085
4.030127017315012 3.198986211756702 1.784864854888242
4.042583980902499 3.391492015873677 2.95303640652103
2.568795530785031 2.037152190698317 1.61356223826789
2.088078396649142 3.435499648171406 2.146672378278779
3.066055866825585 3.387342421738377 2.961111078356909
2.074955860678529 1.516518976104037 2.681011258314361
2.19659114404065 1.577767152972811 2.886634938752468
1.578206825757852 1.678554046269444 3.070286371132694
1.331036260599976 1.677551478261307 3.068839545996794
2.071642990117023 1.68062625843135 3.073259689519323
2.318596937747289 1.6815628269309 3.074596026560104
2.443250795311958 1.578316084394224 2.887941696281289
2.565616851431001 1.682384506910366 3.07576462678754
0.8648681111523433 2.450933416450161 1.501204490208958
3.922026435710539 3.275254047554237 3.131649556123308
3.676724913956159 3.273963421137562 3.133230307819391
4.152987240510063 3.332382276679395 1.94579810044531
4.166941841276017 3.276645718864204 3.129937637683211
2.700587504603533 3.267025136949623 3.14161705034032
2.454039671740053 3.265925308888733 3.142929561619077
3.54485740440742 3.201567049717704 1.787396551544692
2.451972957890893 3.463430673910325 2.767957714142917
0.7423972033349258 2.244285274494246 1.533247715720559
0.8621289103373713 2.047420917884133 1.608275729593974
2.690245827115666 1.578907460864241 2.889343722626218
2.812679278121291 1.683205651273814 3.07692893140227
3.907327404223691 3.035049882805636 1.655179532143264
4.149652174454575 3.033460265237486 1.65417487303063
2.568174141639173 1.517086009932388 2.684065445234478
3.801152212998711 3.122983074514097 3.282235315534247
3.902783058122839 1.833656256716066 3.245644698087738
4.148626959162256 1.835977728328501 3.247712794276132
3.656519337579037 1.825054887485958 3.23786793878946
4.272135777641795 1.686322082509006 3.08131596106379
4.287141088061458 3.392367038505726 2.951310390516903
2.687935811242158 1.824314896299118 3.237190369332595
2.935413096243955 1.82522370888604 3.238022328219471
2.204556412348905 1.808694372093813 3.222562473994624
1.453177216711225 1.8179040262999 3.231262663249063
1.206088284398982 1.816436206381469 3.229890772687148
1.084212764411906 1.676574458202431 3.067424336026734
0.9681688575368586 1.811321318893679 3.225066668789607
0.8400436771518401 1.675001378591949 3.065134740283072
0.7323234259099244 1.798279828509844 3.212452665742662
0.9872226916587341 2.659825912414047 1.512854783873711
0.7449895114931741 2.6611144581188 1.513064271907696
0.8671760042889056 2.862685185400343 1.568088278702795
0.9626070446280914 1.57480813583389 2.879499689697947
0.7181770018228373 1.574142848932722 2.877873703527492
0.8415947607258829 1.51552738831229 2.675538248928203
2.574133898102985 3.43414209297226 2.143098682914441
1.700213528485721 1.819369240028462 3.232626622899118
3.778545360429298 1.996039350827021 3.363726614204488
3.554761362360275 3.121532098698119 3.283388696808878
4.027590275543394 2.84647183923979 1.561939626349244
4.269196157208357 2.844366038856702 1.561164534499178
3.787308582055463 2.847960520165304 1.562490812628329
4.146871821853354 2.642190261566112 1.510160654694025
2.934599139007911 1.578567483942055 2.88853843870475
2.578923593670654 3.112773953619357 3.290258237391868
2.331825204770009 3.111573105790278 3.29118792728026
2.207015419259837 3.265145712035587 3.143857157569561
2.084639494381582 3.110522886383816 3.291998614393722
2.832843775953759 3.11263796414898 3.290363666221691
1.365063240036171 3.105048269101449 3.296188791717983
1.95949442089919 2.654725621789225 1.512042520164993
0.6252196237486038 2.863878464270166 1.568553563944557
0.7473419184719563 3.049508351680043 1.664511776603714
0.989243772151427 3.048351301911514 1.663751920963672
0.8694662221825395 3.211281959654973 1.797093196882132
0.6272918725418559 3.212140830688037 1.797963364725919
0.7494589522565811 3.342649935070126 1.961538221480566
1.111824454553443 3.210678596758073 1.796483168566682
0.6257859763438882 3.102332696211121 3.298245152240239
4.382807077432965 1.823330688389612 3.236287065433533
0.6216784172266752 2.049834641252004 1.607054789036142
0.7394714694209459 1.872059394826948 1.721738735144231
0.9818247220966179 1.870687619386998 1.722847551887536
0.858655170544783 1.721248431714926 1.872667556319986
0.5027152753331044 2.246958477927455 1.532544580816661
0.6164792790058886 1.723589603301618 1.869772345974361
0.732161790845588 1.605807913017237 2.052316505131794
0.6041037156699909 1.514584270713641 2.67016415743344
0.4441173255419698 1.570163772386723 2.867973626524932
3.684951078938446 2.944232200501435 3.395911687633135
0.7224457805150928 1.500690420474494 2.462846746191519
4.382044566572072 2.644085235038813 1.51043471916007
4.26555544471495 2.432822314914364 1.502258972164352
3.43078810151096 3.465603943910585 2.760017352313887
4.395283595728587 3.026169728218353 1.649620427628565
3.431507011681586 3.27281955666663 3.134625821121071
3.314891482401992 3.122215943298022 3.282845655225699
1.963099806260077 3.264876645903099 3.144176774303471
2.085914517332375 3.384347867072909 2.966828501704424
1.840882944657781 3.110470524891049 3.292038975202134
4.481807769100976 2.449281441389975 1.501287014296639
4.376347695204406 2.230404179979174 1.537026431397363
4.143386476568836 2.226318084844021 1.538179741679062
4.262046522315186 2.032350164212019 1.616086185712954
4.40351666123153 3.280913372787841 3.124639339299982
4.290060178427987 3.127952075559531 3.278252009827458
1.088245503215208 1.96927922549194 3.347546729983407
1.575177508053582 1.990281434272561 3.360341201938372
3.534199293219136 1.984880130205561 3.357118148065341
3.408925633370357 1.821977215127302 3.235040885389017
3.306000925057051 1.976886339376294 3.352262927780428
4.516409518058582 3.391928862301772 2.952175745250744
4.395741533302879 3.466215803775222 2.757734399207795
4.54189639023383 2.03260705483742 1.615950321072255
4.38230140670608 1.856646925570876 1.734430394005487
4.141568527428942 1.858122984523844 1.733192398966063
4.259837091570727 1.711545982511177 1.884906297946618
4.020291994830649 1.712436676665192 1.88376626858161
4.137898473452031 1.600881183586613 2.062295357608135
4.38527533158855 1.600182565873777 2.063733355340452
4.258112493624883 1.529068293319129 2.260643318535349
4.271459424371141 2.005733918389383 3.369310669766158
4.567794050295392 3.143882058025898 3.265124758031221
4.415848389723497 2.950042016286296 3.393007381591532
4.519296659242444 1.999130080855558 3.365522572840386
1.83924196078826 1.995778500158378 3.363574362227982
3.602601155331758 2.169313044811123 3.443740503352436
0.5212840923705645 3.339044160120716 1.955936678899118
0.6341007740202793 3.435895122195154 2.147721246381054
0.8723208794351216 3.436243480320783 2.148648117186164
0.7522507538890908 3.489035240535705 2.352320302754646
0.5277825943467245 3.490124531401363 2.359809371507109
0.6357557652700808 3.497470989983404 2.571074778519012
4.543479453298351 1.6777751545774 3.069162809369852
4.396272454885954 1.581634110088966 2.895732349256306
3.934668833073607 2.941559589592617 3.397231925891405
2.825046069797084 2.016952154871711 3.375593958017594
2.576239293590074 1.971914959187721 3.349191491755714
0.497202924334741 2.658037438603915 1.512566879226996
4.511443602980147 1.528798772267934 2.261739270437346
4.381944868505107 1.500499570538914 2.468394755069698
4.620033456843623 1.500401370096822 2.471670173038134
0.383433589607791 2.86512270530952 1.569040596982093
4.634012691907164 1.604981111306196 2.053971762237738
0.4804307913483319 1.608960852602709 2.046073532600809
2.726910948671554 2.924341388569605 3.405502283788848
0.3671121409287786 1.734202011730873 1.856918791160123
0.3583673480066289 1.531139977188376 2.252390920607784
2.209426682759045 2.927704663293388 3.403918536703994
0.4838748395908631 1.500773967577036 2.460663806383169
0.3996091788926255 3.214500203694842 1.800364767239364
4.512376575675465 1.710742450542832 1.885937689949247
0.966146167244718 1.500612323574081 2.465010398573241
4.384112217115153 2.178690549550472 3.446974253637248
4.024802228885896 2.061630462133528 3.398794831021371
4.784167310630559 2.095991557777002 3.414755256127313
4.644180534599489 2.949745430032803 3.393156788119874
4.366914265212102 2.720357264739997 3.475419230831701
0.603988481482462 1.531604352441795 2.250580935391207
1.122855196363482 2.715325335583956 3.47654236971862
0.84836828084599 1.530414111195278 2.255248689011157
4.147983272463112 1.579406893323424 2.890523151605088
0.6240008596587782 2.285332661813199 3.47668722420015
0.494283133873489 2.088155172591593 3.411253992110289
0.229384374826059 2.108744828386483 3.420282234255164
0.3735653744656043 1.925946708941547 3.318817940097161
0.737572921399465 2.106510191129599 3.419328978285323
0.993798863687118 3.489186203317384 2.353334887698065
1.209495358854225 1.575357317650182 2.880835804483944
4.160713327733317 3.466864437937396 2.755290341869809
4.280085289297976 3.498959217252059 2.545612303900954
4.157238403098959 3.486327932577528 2.33520555404584
4.401516278565794 3.485947419257571 2.33294406188544
1.125419430933782 2.285003863612282 3.476614899199451
3.914244169121806 3.486643929127168 2.337108142878459
0.9929151858267664 3.460636615013806 2.777808016253702
0.7491192624106425 3.460277987767415 2.779045132925417
0.6256109069804741 3.378941372764781 2.976929830522649
0.5105879112350949 3.459242133525909 2.782585437113561
0.3822795496942225 3.378825629226401 2.977143074365353
0.2461174627943791 3.464030281294373 2.765792431697163
0.7482942813805704 3.25797827430695 3.152279798613032
1.620745807132319 2.717871982367447 3.47597735593572
1.489091210984691 2.924270306117042 3.405535591430481
1.624580569066218 2.285003863612282 3.476614899199451
0.5020672502353316 3.256933691065218 3.153491688799777
0.38048142186655 3.101753327067311 3.29868199764576
0.5042624521935711 2.917434822717207 3.40870686625724
3.902798471145267 1.500402068022551 2.471645557906966
3.661138974887179 1.599983590285029 2.064143989092988
3.114166260152608 2.724106449309251 3.474564671726818
2.970590149899485 2.932037289886892 3.401855742426243
2.812146095822911 1.516988154031335 2.683542122373253
2.689841479308631 1.500412467917149 2.471281265617789
2.44589811453567 1.50043174765104 2.470617881355407
2.32164729815544 1.516799870874685 2.682530835992072
2.199718402240483 1.500479714853158 2.469029052646463
1.953796996745464 1.500554680092103 2.466697559936225
2.076737172092295 1.529794566511805 2.25771624728434
2.126296455036532 2.282108687086997 3.475973040486799
2.235008263265603 2.107755292997827 3.419860907870738
1.343676967593065 1.718735047629012 1.875800453222883
3.125294013114439 2.284932731056089 3.476599237061451
0.4928424657109386 1.881806540660408 1.713974016441092
4.497303330059756 1.516420773017059 2.680476880091716
2.624726761112342 2.284920948704377 3.476596642270377
0.6022056377109452 1.670797902137738 3.058948907236452
2.812957129497232 2.035678039575878 1.614333518152629
2.692031600317105 2.233064106368422 1.536285712105963
2.448158078850945 2.234636286418192 1.535851619555334
2.570585175447821 2.442106397619765 1.501677241167247
2.814982273658022 2.440538380183575 1.501769407517077
2.325937343284549 2.443285559186747 1.501609559238852
2.202563355759157 2.235500039145819 1.535614303969549
2.935901478611153 2.231493851180889 1.536722029709841
3.058671464761392 2.438870796732801 1.501870138454962
2.938256018055935 2.650332745325041 1.511364543583917
3.181273061354409 2.648450991549277 1.511080234241404
3.302396684281116 2.437127187814825 1.501978452392972
3.425573080218521 2.646152559545766 1.510737936976141
3.300950217292947 2.851460999015214 1.563797475878628
3.180906744325493 3.336288298126889 1.951710038012702
3.057352907863543 3.203576502179812 1.789380477625037
3.178123844080152 3.039614030503921 1.658087475990935
3.301104470583395 3.202649851291598 1.78846420576341
3.541592089251433 1.710634344191956 1.886076664858929
1.230105640580687 2.659101752023143 1.512737809645702
1.47778376544386 3.342818655351443 1.961802346538388
1.23434835946395 3.342490079121112 1.961288141412774
2.69174893878411 2.651778127269859 1.511585410830832
1.47518842178891 3.047529741433031 1.663213777451924
1.598291028391616 3.210610601534921 1.796414487794001
0.5053401428228909 3.050291032452484 1.665027078521478
0.6227104265219271 2.452523487589647 1.501127645407408
3.057328973458303 2.034021955284857 1.615203717320505
3.42446217610253 3.335492510211212 1.950498166171424
4.284281548741525 3.191366008121105 1.777495299105475
4.395309655823609 3.331129918567407 1.943921715527269
1.355160095963762 3.211380691473265 1.797193119129431
3.663928688337712 1.856682354434398 1.734400622450664
2.687413846689605 1.600731382373552 2.062603208342566
4.033490843211316 3.430216769408178 2.132989425340615
4.287110453403007 3.430584561281856 2.133922994024678
2.574828201748348 3.498310904235531 2.558097663330259
2.329691098253718 3.498258359569204 2.558993622962169
2.330015194421132 3.384616754295098 2.966318772965883
2.20813254852261 3.340205194654944 1.957731403384958
2.078772709960012 2.039534239516875 1.612322534124755
2.082386922549584 2.857471308717081 1.566075879182844
1.104632359490641 2.045813958321448 1.609093136436603
2.32447522578593 2.038610342577498 1.612802398547231
3.665902385676044 3.03714324140373 1.656508957833994
1.967341037895092 3.488920092862363 2.351551187498533
1.088646245583011 1.515608893170014 2.675994740813568
2.325685331076985 2.856456462828 1.565688065950054
2.203170913815162 2.653778450755711 1.511894647275315
1.347518055501514 2.043922574932922 1.610059899575155
1.467487897377204 1.866497350451342 1.726259479531523
1.726458807313087 3.461765721945359 2.773873503813207
1.485940427864245 3.260955508615083 3.14880406434328
2.451201819637044 3.339200718505467 1.956178196409974
2.931795512529164 1.600314250082065 2.063461855739269
1.836794663138936 2.445185287568071 1.501503456540282
1.829812934817017 1.529960840924839 2.257051384320153
2.20866240793157 3.463139737632429 2.769001572101978
3.307273865262092 3.498609790530068 2.552711348469695
1.953476852845663 1.602739122660603 2.058499243493134
0.9916577687460015 3.342318705991992 1.96102022529971
1.24325672703141 2.92137208228574 3.406887847680285
2.455502868678641 1.812958018167414 3.22661772287741
1.328191910516696 1.982505218723634 3.35568636272394
1.824963308681089 1.679631835181427 3.071835705559042
1.335366843595689 1.515775228335774 2.676922578667907
1.108933372461615 2.861330504204068 1.567562191493913
1.224299114943325 1.86901434198361 1.724205504416522
2.946237171005521 3.268553558914007 3.139785453945785
4.047710642644874 3.124944576244053 3.280669121089813
2.696884331826907 3.488069870035778 2.345993727635916
3.294880863141731 1.517268082127117 2.685035071253764
3.053272915934832 1.528627122217016 2.262440044814779
3.536665321361197 1.682280885792419 3.075617451316035
3.667702986923072 2.64439899298076 1.510480454550724
2.33119959426705 3.434740751772291 2.144669552421732
2.453310908691124 3.488315567631366 2.347578417612564
3.554229411659264 3.389970877350946 2.956017365313193
1.237301263324264 3.489627887308066 2.356345398047354
0.38164993160304 2.453108517677277 1.501100010568837
0.2717627475421902 2.252664782857018 1.531070028144018
1.95160211388894 1.810360848209535 3.224153188433033
3.186569265399569 3.464933130764318 2.762495815496879
1.232128571683594 3.048106395495443 1.663591380235119
1.100727901507033 1.718869797738637 1.875631833678941
3.832094321743973 2.734529111187525 3.472109096761053
2.080390446325883 2.44380782664385 1.501580028418145
0.9752564420528906 1.603538983793571 2.056877391208555
4.791351699398229 1.931935253268844 1.677016134106344
4.809105262733118 2.372626069890318 1.508145231433344
4.75878797209324 2.847087664147208 1.562167310552232
4.797548508158199 3.249313807318338 1.83778491548282
4.562932450110186 3.176340367916293 1.763410761192608
4.796091033136611 3.469868780893817 2.256372111925705
4.556385867924029 3.431097371132292 2.135229269992048
0.8727268626693249 3.497953508067786 2.563943691910918
0.1888023663623081 3.470899642130723 2.260513288655856
0.2099266440008934 1.529443737996317 2.740874536399009
4.785625951120695 3.499740844017151 2.47723500924943
3.309883329720235 3.388780078917678 2.958333908105309
4.171414354382385 2.948527392987944 3.393769085244863
4.757153645635152 3.389605336457817 2.956730057414414
4.791019654649715 1.614273050022546 2.96420660280056
0.2104030198575476 1.616011400650137 2.967508455773228
2.447775376782189 2.652739634665656 1.511733535931628
3.451708801815228 2.945053657141328 3.39550390410379
2.80941595838626 1.528930207630745 2.261204149223792
3.422832384613358 3.038492063001636 1.65736941778485
3.850162116712907 2.261359355644279 3.471107946039722
2.565579761435811 1.529065966789241 2.260652756119716
2.321435625688578 1.529392518915911 2.259331934682642
2.813114880042529 2.854145486582966 1.56480965876838
4.550813198697376 3.49777737862959 2.566635596306055
3.056504687450829 2.852912338477674 1.564343609357463
2.210262052901629 3.488543751710579 2.34906540835854
4.511117008899303 2.842711495245103 1.560559298823568
2.198446230135023 1.602263145823456 2.059467889191716
1.114421693249168 3.436768458043993 2.150050209295848
0.2332356437772013 2.89164018878698 3.4201184502698
2.088176619575355 3.498121670372098 2.561262803834085
3.907696667357873 2.64449631610633 1.510494661645679
3.545687528578617 2.850652628078891 1.563494402354494
4.026036494226554 2.433533730317365 1.502211327487391
3.057100526409525 1.682648546447022 3.076139394048726
3.188362858371268 3.271096819373557 3.136717908615725
3.905430990857852 2.227052304094854 1.537971125537247
4.024032377611382 2.032756978160502 1.615871073574507
2.612713874006197 2.718237046368225 3.475895789309736
1.091080413774722 1.529741889211934 2.257927286853778
2.932125330846484 1.500397187832525 2.471818128045222
2.460966677809363 2.930377741729644 3.40264887936766
3.902669213725942 1.857777875379159 1.733481414023448
2.121389228756232 2.712363284727192 3.477190787563963
1.969367329011764 2.927705467295978 3.403918156275848
3.05388584340366 1.517032945365953 2.683781853032516
3.780422350202629 1.712070092358788 1.884235060559217
1.96678758552617 3.462608850461147 2.770895184552749
3.078027905009174 3.119165348282282 3.285260639206169
3.900616734055498 1.600806545351819 2.062448710300302
4.020684115446368 1.52909415554856 2.260538434795819
3.17561425871387 1.578430221080189 2.888212754274882
4.141885067392753 1.500463572247879 2.469554481503351
1.845002961091887 3.383702151549336 2.968049684699258
3.295322118709172 1.681206290000109 3.07408785082478
4.265065607176527 1.517156089291807 2.684439277768661
1.723110659950874 3.264832014356077 3.144229764770323
3.172805514547388 1.821029447172689 3.234165504769446
1.603532915679176 3.110344878690833 3.29213580215508
0.3812567942076004 2.066255915196055 1.598963891457402
3.081593451583128 1.98504924221674 3.35721976007232
0.4016496457060426 3.434879022380901 2.14503350367657
1.732291544856537 2.924665984484218 3.405350098924195
2.026560418476251 2.109037192401615 3.420406477093023
0.4115652726321232 3.497124975951354 2.575774549381775
4.599575084758686 1.844597010016045 1.744720633990249
4.621643199880481 3.325552949936722 1.935675335599465
4.700136691450856 1.900047432208576 3.300035571959445
4.609531893332942 2.284178535674877 1.523567157692574
4.598336250967141 1.57051140873821 2.868850862428398
4.804264334741204 3.076566343183212 3.317050336214568
0.1847456546902315 3.251791864090631 1.840599519952302
3.213560248917988 2.93604732106805 3.399923737763027
3.595121849454515 2.72996259792628 3.473199467506531
0.1681146411951967 2.858375468296054 1.566422459715539
0.3963730763200778 1.673914136915947 3.06354427227386
4.833461465362991 1.500065560262106 2.488549400624234
0.1705168339260567 3.382137185781142 2.970992553510273
0.1612844464487098 1.744035316256153 1.845387597939005
4.816476192179248 2.842512613605243 3.43951323009381
4.611051763765949 3.489029181696973 2.352279731411648
0.3933732174773146 1.510626590514301 2.645396893373425
4.59140129634467 2.661271077236151 1.51308985229298
0.1703071951018996 3.082501012361435 3.312829976439048
0.1713588699976105 1.922904776851323 3.316676865975141
4.60630123431832 3.001091685257325 1.634605799091551
4.83996514033773 1.612847993529472 2.03852267941391
0.5021517467294483 1.788451228924006 3.202636710100065
4.607014789176502 3.299086042188461 3.101216680723
0.1757254284358281 2.420106900105145 1.503196562711991
4.601000373662041 3.45613979346778 2.792910729314225
0.1535316470033663 1.529410520832792 2.259259345082873
0.8454057556750896 1.949379655850392 3.334755794594184
0.6142170596755034 1.936325491410136 3.325997002637404
0.1844911027647882 2.68142877853192 3.483404086995989
0.1844911027648095 2.31857122146811 3.483404086995995
4.815508897235191 2.31857122146811 3.483404086995995
0.9790667790206131 2.114818512740903 3.422840843197173
1.224226565653461 2.122298434704868 3.425927387851557
0.1751817031317168 2.091327562925684 1.587318873222559
1.47086083349141 2.127440327676658 3.428008238410804
1.697988447658504 2.118993996150618 3.424572563420917
2.095550932556037 1.951964493373308 3.336455069610093
2.33409520992854 1.956021718138564 3.339099296187931
4.575154068798627 1.804973594919459 3.218984211398845
2.471798572863068 2.116904195092865 3.423708614370654
3.007394481630491 2.149839107277175 3.436689569285126
2.675127783508274 2.124453026356053 3.426803361337707
3.250055506928784 2.156108514430113 3.439009396200345
4.865897140759654 1.928664745222703 3.320716776146657
0.3369153853198447 3.328111337461106 1.939436343696474
3.618251896006381 2.348919452987829 3.488521455667252
4.376824098839293 2.350059575836658 3.488695033466699
4.83829523843585 2.660933572285478 3.486965240173855
0.3354592505607752 3.492705484660994 2.37943540849826
4.664241116946917 2.490782510894876 1.50004248195506
3.413571376107345 2.111195422045401 3.421320248426977
2 2 0 60
648
649
650
651
652
653
654
655
656
657
658
659
660
661
662
663
664
665
666
667
668
669
670
671
672
673
674
675
676
677
678
679
680
681
682
683
684
685
686
687
688
689
690
691
692
693
694
695
696
697
698
699
700
701
702
703
704
705
706
707
5 3.12373742533723 3.01911320578211
5 1.91321755919109 1.980156119455909
5 2.054675174085534 3.145164391767751
5 2.959417409706286 1.850188366425704
5 3.291905292919917 2.508753953501288
5 2.428766704364533 1.68721178879623
5 1.738846454904261 2.687607499234412
5 2.594492707846934 3.278217463916453
5 3.197799375750588 2.119270870035657
5 1.733908597866218 2.31631318074377
5 2.790739909882435 3.273705759283199
5 2.684498767896774 3.076395620910053
5 2.462772495454476 3.07955242631408
5 2.56258537194467 2.868793757964215
5 2.32958719342699 2.878575899027622
5 2.431310072174134 2.666483900934649
5 2.670950065604694 2.652517954933511
5 2.537978031536118 2.45121736967998
5 2.297389617023179 2.465988800089312
5 2.404738141257536 2.250267087105381
5 2.778460288574292 2.436496402338648
5 2.90156999523825 2.638235714811527
5 2.17054287603751 2.26831030570614
5 2.073076974776509 2.49124325703797
5 2.288742669823315 2.073565807462843
5 2.515808448897028 2.051015486068934
5 3.050060231297747 2.428071710735239
5 2.87423103876656 2.235762847371333
5 2.788302607156476 2.859818306016494
5 2.191461587344649 2.682512844571205
5 2.075497531291695 2.924997336932071
5 2.645300639480714 2.235479394953813
5 2.766795279925996 1.994709838329932
5 2.592889769952279 1.830998003619836
5 1.965217184419304 2.704477252825005
5 1.818637669830256 2.886600284028586
5 2.376084364745883 3.280325083311442
5 1.942324967539114 2.255634877175772
5 3.011678309604185 2.830382966724887
5 3.126520517047839 2.645867582172348
5 3.222363168818405 2.851101545285645
5 2.248429732711643 3.091511565447681
5 2.922529020759069 3.09943029569469
5 2.782318841338129 1.733557771461278
5 3.120450982180911 1.939534195014428
5 3.254555852597302 2.305167045202035
5 2.02719761822341 1.815027496078053
5 1.76629020320347 2.125886908720352
5 2.204861045949264 1.721782536083547
5 1.668648203462333 2.502653949129258
5 1.85367039716129 2.492988336024365
5 2.083024010252163 2.067574512372829
5 3.313967227225687 2.692451927337669
5 2.978059966728455 2.055058493745751
5 2.193254748486217 3.275320470903202
5 2.369073032944288 1.876880786680364
5 2.6086581959885 1.656165149290258
5 1.891094334958928 3.070672692820259
5 3.067770951829263 2.234775082223683
5 2.194579675438488 1.910966227735527
2 3 0 59
708
709
710
711
712
713
714
715
716
717
718
719
720
721
722
723
724
725
726
727
728
729
730
731
732
733
734
735
736
737
738
739
740
741
742
743
744
745
746
747
748
749
750
751
752
753
754
755
756
757
758
759
760
761
762
763
764
765
766
0 3.08678244080891 1.980156119455909
0 1.910302083661424 3.034390906832596
0 2.054675174085533 1.85483560823225
0 3.094060710505351 3.047651340485038
0 2.596468806482325 1.717811917774224
0 1.684552401925571 2.527254794000157
0 2.39264025893345 3.284955861785019
0 3.283933219720151 2.5
0 2.784802385163881 3.233846549985281
0 1.822052226164798 2.173876602160863
0 3.303109396736165 2.69536016487634
0 3.094431916862143 2.61367674949308
0 3.070839556794939 2.393186600375315
0 2.873648669209802 2.517675878834309
0 2.855274660507066 2.285197412561554
0 2.656990389985181 2.411743482351488
0 2.672011680719203 2.651319639186407
0 2.456150671522144 2.543581421713715
0 2.441814776363765 2.302966504708928
0 2.240605224536363 2.43553491841153
0 2.470523948813897 2.7840847416178
0 2.227643691520708 2.196846077716326
0 2.439302131911777 2.076410669344533
0 2.681591716864554 2.884958272356252
0 2.041345402951441 2.322969185890499
0 2.054549176396299 2.566689840049837
0 2.483620679369452 3.055281791560715
0 2.278555499185823 2.907401655756403
0 2.891272528277383 2.743325693892154
0 2.64396827509497 2.171675481493174
0 2.87072713102293 2.027359691857709
0 2.259007170106637 2.674353813040081
0 2.030295865829377 2.825631912699789
0 1.846847445025207 2.672460535347289
0 2.63851626381387 1.943785457160633
0 2.801979636985495 1.776229440636594
0 2.036906604667187 2.08741278553113
0 3.259699255579311 2.282930054181421
0 2.245369402668201 1.972620389780092
0 2.245085711304128 1.750216284052118
0 2.886399057466873 2.985009118230971
0 3.056874933081747 2.17896450702576
0 3.145379123108276 2.840776392262764
0 1.773136860791141 2.872596550235998
0 2.594372102905776 3.270893028220639
0 2.978621596684134 3.18009475650512
0 1.885505496156613 1.959909900204397
0 1.694609971869504 2.336409516753734
0 2.01814832762367 3.191406090696642
0 2.18589304301153 3.242141007928129
0 2.437732089735026 1.857342924569299
0 2.288826763858496 3.100047125188024
0 2.11867026386172 3.050169783183597
0 2.665853629680312 3.080332148566768
0 3.232693399976805 2.102036623074422
0 2.407994188646784 1.670885861793918
0 1.86785303090837 2.439785605473285
0 1.67536231819169 2.709490689376261
0 2.993139985267572 1.826689969493621
3 1 0 0
$EndNodes
$Elements
6 1316 1 1316
0 1 15 1
1 1 
0 2 15 1
2 2 
1 1 1 26
3 1 3 
4 3 4 
5 4 5 
6 5 6 
7 6 7 
8 7 8 
9 8 9 
10 9 10 
11 10 11 
12 11 12 
13 12 13 
14 13 14 
15 14 15 
16 15 16 
17 16 17 
18 17 18 
19 18 19 
20 19 20 
21 20 21 
22 21 22 
23 22 23 
24 23 24 
25 24 25 
26 25 26 
27 26 27 
28 27 1 
1 2 1 20
29 2 28 
30 28 29 
31 29 30 
32 30 31 
33 31 32 
34 32 33 
35 33 34 
36 34 35 
37 35 36 
38 36 37 
39 37 38 
40 38 39 
41 39 40 
42 40 41 
43 41 42 
44 42 43 
45 43 44 
46 44 45 
47 45 46 
48 46 1 
1 3 1 26
49 2 47 
50 47 48 
51 48 49 
52 49 50 
53 50 51 
54 51 52 
55 52 53 
56 53 54 
57 54 55 
58 55 56 
59 56 57 
60 57 58 
61 58 59 
62 59 60 
63 60 61 
64 61 62 
65 62 63 
66 63 64 
67 64 65 
68 65 66 
69 66 67 
70 67 68 
71 68 69 
72 69 70 
73 70 71 
74 71 2 
2 1 2 1242
75 472 534 471 
76 73 438 381 
77 356 388 90 
78 98 530 348 
79 84 439 376 
80 90 389 356 
81 540 554 83 
82 370 527 89 
83 89 527 43 
84 554 621 83 
85 271 389 270 
86 389 550 292 
87 97 377 373 
88 378 386 77 
89 477 536 472 
90 381 609 73 
91 66 415 85 
92 368 544 102 
93 359 390 107 
94 71 560 70 
95 106 391 358 
96 107 388 359 
97 382 384 86 
98 48 399 47 
99 74 467 377 
100 358 392 106 
101 292 550 361 
102 67 415 66 
103 323 545 539 
104 3 390 4 
105 471 534 329 
106 376 607 84 
107 87 420 414 
108 407 536 477 
109 71 625 560 
110 472 597 534 
111 392 542 89 
112 358 542 392 
113 601 610 26 
114 399 626 47 
115 348 599 98 
116 380 426 303 
117 356 389 271 
118 270 389 292 
119 3 627 390 
120 96 426 380 
121 99 376 374 
122 42 604 41 
123 88 618 400 
124 360 594 93 
125 385 467 74 
126 357 601 101 
127 368 600 544 
128 89 542 370 
129 606 618 88 
130 77 617 378 
131 93 632 360 
132 374 378 99 
133 530 596 348 
134 87 421 420 
135 43 527 42 
136 80 603 425 
137 97 605 377 
138 373 521 97 
139 391 610 601 
140 379 382 104 
141 94 638 371 
142 371 637 94 
143 277 634 633 
144 104 381 379 
145 633 634 435 
146 73 590 438 
147 101 619 357 
148 532 613 557 
149 539 612 323 
150 86 622 382 
151 84 600 439 
152 527 604 42 
153 415 595 85 
154 536 597 472 
155 623 624 283 
156 547 603 80 
157 377 605 74 
158 569 572 75 
159 380 572 569 
160 382 393 384 
161 90 550 389 
162 380 569 96 
163 396 586 369 
164 401 624 623 
165 354 378 374 
166 426 579 303 
167 574 575 95 
168 383 575 574 
169 354 386 378 
170 386 596 77 
171 95 593 417 
172 414 608 87 
173 379 393 382 
174 102 635 368 
175 383 574 75 
176 361 642 79 
177 75 572 383 
178 72 613 532 
179 321 393 379 
180 321 395 393 
181 526 529 318 
182 557 616 532 
183 323 606 545 
184 369 586 439 
185 543 621 346 
186 79 647 361 
187 410 537 411 
188 171 570 194 
189 367 413 411 
190 452 555 455 
191 351 386 354 
192 349 386 351 
193 304 503 418 
194 194 529 526 
195 418 503 81 
196 411 537 367 
197 99 607 376 
198 391 601 357 
199 455 555 458 
200 388 643 90 
201 199 488 387 
202 318 529 321 
203 199 507 488 
204 488 507 403 
205 445 546 464 
206 81 503 394 
207 575 593 95 
208 81 394 32 
209 393 395 325 
210 109 422 105 
211 194 570 529 
212 414 420 412 
213 219 520 402 
214 422 560 105 
215 325 395 387 
216 106 392 45 
217 369 600 368 
218 45 392 44 
219 83 621 543 
220 112 416 313 
221 210 453 216 
222 219 537 410 
223 465 525 473 
224 91 110 109 
225 403 507 229 
226 454 563 516 
227 452 455 454 
228 44 392 89 
229 416 420 313 
230 32 394 31 
231 464 546 142 
232 347 405 404 
233 449 450 230 
234 273 396 369 
235 463 473 312 
236 412 420 416 
237 448 528 447 
238 91 109 30 
239 30 397 92 
240 347 554 405 
241 452 454 453 
242 447 528 490 
243 448 482 231 
244 168 559 520 
245 230 453 210 
246 108 399 398 
247 458 549 455 
248 397 401 92 
249 347 404 274 
250 173 432 201 
251 453 454 216 
252 230 469 449 
253 473 525 312 
254 450 453 230 
255 432 498 433 
256 110 422 109 
257 399 400 398 
258 459 470 260 
259 238 396 273 
260 448 485 482 
261 199 570 171 
262 248 403 229 
263 92 408 31 
264 120 520 219 
265 114 416 112 
266 108 398 397 
267 233 586 396 
268 456 470 459 
269 421 560 422 
270 479 499 261 
271 423 583 233 
272 420 421 313 
273 406 476 409 
274 480 499 333 
275 436 509 492 
276 245 431 430 
277 498 501 433 
278 29 109 105 
279 108 397 29 
280 201 432 245 
281 482 485 175 
282 41 604 80 
283 261 499 480 
284 449 469 442 
285 29 105 28 
286 28 108 29 
287 46 106 45 
288 45 107 46 
289 462 473 463 
290 274 404 241 
291 245 430 246 
292 425 426 96 
293 436 492 164 
294 245 432 431 
295 312 502 463 
296 91 111 110 
297 406 409 226 
298 194 526 436 
299 95 417 34 
300 34 419 93 
301 112 313 110 
302 231 528 448 
303 405 554 407 
304 281 282 280 
305 301 480 333 
306 410 411 235 
307 195 581 423 
308 273 368 314 
309 402 537 219 
310 116 410 235 
311 93 434 35 
312 39 425 96 
313 219 410 118 
314 516 563 296 
315 413 415 414 
316 31 394 91 
317 417 418 81 
318 206 423 233 
319 111 112 110 
320 451 555 452 
321 238 273 271 
322 282 287 280 
323 384 612 86 
324 273 369 368 
325 94 437 39 
326 411 413 412 
327 310 467 385 
328 38 440 94 
329 464 553 451 
330 282 288 287 
331 407 477 406 
332 195 423 193 
333 283 441 282 
334 413 414 412 
335 126 466 462 
336 31 91 30 
337 30 92 31 
338 32 408 82 
339 424 580 195 
340 284 461 221 
341 339 346 274 
342 221 461 155 
343 173 498 432 
344 466 473 462 
345 189 424 195 
346 442 469 181 
347 398 401 397 
348 316 438 315 
349 279 280 248 
350 319 468 262 
351 281 283 282 
352 152 470 456 
353 246 430 251 
354 288 441 323 
355 411 412 235 
356 288 323 322 
357 257 274 241 
358 429 551 428 
359 288 322 289 
360 301 333 332 
361 346 347 274 
362 264 427 298 
363 116 235 114 
364 322 384 325 
365 33 417 81 
366 82 419 33 
367 44 89 43 
368 43 90 44 
369 206 233 224 
370 520 559 402 
371 434 435 76 
372 432 433 431 
373 118 410 116 
374 280 403 248 
375 120 219 118 
376 279 281 280 
377 456 457 139 
378 30 109 29 
379 29 397 30 
380 193 423 206 
381 171 194 166 
382 179 442 181 
383 33 81 32 
384 32 82 33 
385 115 116 114 
386 119 120 118 
387 288 289 287 
388 462 463 168 
389 224 396 238 
390 273 314 271 
391 175 485 177 
392 117 118 116 
393 268 428 427 
394 80 425 40 
395 186 460 424 
396 128 466 126 
397 166 436 164 
398 124 462 168 
399 379 381 320 
400 189 195 193 
401 36 434 76 
402 322 325 289 
403 31 408 32 
404 257 339 274 
405 251 268 264 
406 40 437 79 
407 468 521 373 
408 136 457 137 
409 113 114 112 
410 194 436 166 
411 461 508 169 
412 233 396 224 
413 146 456 139 
414 226 409 208 
415 139 457 136 
416 35 95 34 
417 76 440 37 
418 384 393 325 
419 34 93 35 
420 268 427 264 
421 295 557 326 
422 405 407 406 
423 320 438 316 
424 121 122 120 
425 404 405 226 
426 169 525 465 
427 459 549 458 
428 152 456 146 
429 41 80 40 
430 119 121 120 
431 117 119 118 
432 285 468 373 
433 446 464 451 
434 186 424 189 
435 310 385 362 
436 262 468 253 
437 405 406 226 
438 187 460 184 
439 115 117 116 
440 39 96 38 
441 183 469 197 
442 428 551 548 
443 242 442 179 
444 187 474 460 
445 406 477 476 
446 40 79 41 
447 232 253 221 
448 456 459 457 
449 381 438 320 
450 196 221 155 
451 124 168 122 
452 38 94 39 
453 315 319 262 
454 37 75 36 
455 478 479 261 
456 155 461 148 
457 307 467 310 
458 36 76 37 
459 197 198 187 
460 232 262 253 
461 153 154 152 
462 282 441 288 
463 242 443 442 
464 261 480 237 
465 210 211 198 
466 259 480 301 
467 196 232 221 
468 179 181 180 
469 123 124 122 
470 121 123 122 
471 285 373 306 
472 373 377 306 
473 151 152 146 
474 220 226 208 
475 181 183 182 
476 256 477 472 
477 183 187 184 
478 256 472 471 
479 177 242 179 
480 177 179 178 
481 445 464 446 
482 170 202 154 
483 253 285 284 
484 264 298 265 
485 197 210 198 
486 445 446 443 
487 267 471 329 
488 34 417 33 
489 113 115 114 
490 33 419 34 
491 148 169 143 
492 184 460 186 
493 241 404 220 
494 444 445 443 
495 329 557 295 
496 583 586 233 
497 123 125 124 
498 256 471 240 
499 446 451 450 
500 268 429 428 
501 183 197 187 
502 446 450 449 
503 35 434 36 
504 181 469 183 
505 301 332 302 
506 202 218 203 
507 215 478 261 
508 125 126 124 
509 126 462 124 
510 451 452 450 
511 253 468 285 
512 295 326 297 
513 148 461 169 
514 40 425 39 
515 183 184 182 
516 267 329 295 
517 181 182 180 
518 267 295 294 
519 179 180 178 
520 443 449 442 
521 125 127 126 
522 202 203 154 
523 39 437 40 
524 235 416 114 
525 251 264 252 
526 37 440 38 
527 216 217 211 
528 211 212 198 
529 218 240 239 
530 240 267 266 
531 218 256 240 
532 253 284 221 
533 285 306 286 
534 197 469 230 
535 242 444 443 
536 111 113 112 
537 127 129 128 
538 240 471 267 
539 127 128 126 
540 153 170 154 
541 326 335 327 
542 374 376 375 
543 154 470 152 
544 220 404 226 
545 553 555 451 
546 263 315 262 
547 140 466 128 
548 136 137 135 
549 210 216 211 
550 143 465 140 
551 134 135 133 
552 444 447 445 
553 446 449 443 
554 132 133 131 
555 476 477 256 
556 218 476 256 
557 207 512 478 
558 130 140 128 
559 151 153 152 
560 259 301 300 
561 129 131 130 
562 218 239 203 
563 321 379 320 
564 215 261 237 
565 156 196 155 
566 149 155 148 
567 237 480 259 
568 295 297 294 
569 457 458 137 
570 129 132 131 
571 141 143 140 
572 169 465 143 
573 318 320 316 
574 129 130 128 
575 132 134 133 
576 240 266 239 
577 134 136 135 
578 354 374 355 
579 267 294 266 
580 246 251 250 
581 447 546 445 
582 452 453 450 
583 170 409 202 
584 326 327 297 
585 144 148 143 
586 310 362 311 
587 313 422 110 
588 207 478 215 
589 285 286 284 
590 165 166 164 
591 336 348 338 
592 307 310 309 
593 430 431 429 
594 177 178 176 
595 409 476 202 
596 175 177 176 
597 130 141 140 
598 202 476 218 
599 351 354 353 
600 197 230 210 
601 206 224 222 
602 129 481 132 
603 161 482 175 
604 465 466 140 
605 377 467 306 
606 167 171 166 
607 251 430 268 
608 239 260 203 
609 203 470 154 
610 172 199 171 
611 131 483 130 
612 260 470 203 
613 335 336 327 
614 298 565 265 
615 60 97 59 
616 57 73 56 
617 15 72 16 
618 62 74 61 
619 465 473 466 
620 457 459 458 
621 287 403 280 
622 125 243 127 
623 201 245 228 
624 198 474 187 
625 264 265 252 
626 306 467 307 
627 208 409 170 
628 232 263 262 
629 306 307 286 
630 161 175 163 
631 444 448 447 
632 363 366 365 
633 131 489 483 
634 193 206 205 
635 189 193 191 
636 127 481 129 
637 412 416 235 
638 159 482 161 
639 162 164 160 
640 343 344 272 
641 158 492 491 
642 239 486 260 
643 133 489 131 
644 164 492 160 
645 231 482 159 
646 255 330 293 
647 186 189 188 
648 263 316 315 
649 14 531 15 
650 15 531 72 
651 376 439 375 
652 251 252 250 
653 16 532 17 
654 72 532 16 
655 141 144 143 
656 135 142 133 
657 178 190 176 
658 581 583 423 
659 348 349 338 
660 332 334 302 
661 266 486 239 
662 243 481 127 
663 212 474 198 
664 325 387 289 
665 121 147 123 
666 149 156 155 
667 184 186 185 
668 157 231 159 
669 358 391 357 
670 224 238 234 
671 144 149 148 
672 130 483 141 
673 319 521 468 
674 289 488 287 
675 489 490 483 
676 374 375 355 
677 294 296 266 
678 362 363 311 
679 268 430 429 
680 310 311 309 
681 196 484 232 
682 180 475 178 
683 178 475 190 
684 318 321 320 
685 301 302 300 
686 354 355 353 
687 13 98 14 
688 444 485 448 
689 17 100 18 
690 177 485 242 
691 20 535 21 
692 336 338 337 
693 340 357 339 
694 227 229 200 
695 238 271 270 
696 175 176 163 
697 18 533 19 
698 117 213 119 
699 245 246 228 
700 138 139 136 
701 157 497 231 
702 254 257 241 
703 296 486 266 
704 580 581 195 
705 225 241 220 
706 232 484 263 
707 247 248 229 
708 65 538 64 
709 150 151 146 
710 174 208 170 
711 307 309 308 
712 141 305 144 
713 481 495 132 
714 123 487 125 
715 141 483 305 
716 336 337 327 
717 209 220 208 
718 278 279 248 
719 145 146 139 
720 134 138 136 
721 12 530 13 
722 98 531 14 
723 125 487 243 
724 17 532 100 
725 242 485 444 
726 255 519 330 
727 321 529 395 
728 162 165 164 
729 184 185 182 
730 132 495 134 
731 421 422 313 
732 307 308 286 
733 142 489 133 
734 319 522 521 
735 64 103 63 
736 55 104 54 
737 349 351 350 
738 100 533 18 
739 52 539 51 
740 149 157 156 
741 156 491 196 
742 349 350 338 
743 287 488 403 
744 478 518 479 
745 314 359 356 
746 165 167 166 
747 11 77 12 
748 431 552 429 
749 309 312 308 
750 19 78 20 
751 387 488 289 
752 366 367 365 
753 113 304 115 
754 265 565 276 
755 483 490 305 
756 147 487 123 
757 317 318 316 
758 363 364 311 
759 100 534 533 
760 351 353 352 
761 284 508 461 
762 157 158 156 
763 158 491 156 
764 182 496 180 
765 265 276 275 
766 167 172 171 
767 6 544 7 
768 78 535 20 
769 161 163 162 
770 160 492 158 
771 167 498 173 
772 246 250 249 
773 343 345 344 
774 351 352 350 
775 180 496 475 
776 330 331 293 
777 13 530 98 
778 159 161 160 
779 153 174 170 
780 227 247 229 
781 157 159 158 
782 363 365 364 
783 21 540 22 
784 9 99 10 
785 236 244 214 
786 490 528 305 
787 189 191 188 
788 305 497 144 
789 119 493 121 
790 201 228 227 
791 149 497 157 
792 91 394 111 
793 263 317 316 
794 138 290 145 
795 144 497 149 
796 246 249 228 
797 193 205 191 
798 161 162 160 
799 206 222 205 
800 425 603 426 
801 186 188 185 
802 134 495 138 
803 371 372 275 
804 122 520 120 
805 265 275 252 
806 291 360 342 
807 344 515 272 
808 159 160 158 
809 172 507 199 
810 535 540 21 
811 387 570 199 
812 247 278 248 
813 247 291 278 
814 207 215 214 
815 229 507 200 
816 365 402 364 
817 215 237 236 
818 138 145 139 
819 305 528 497 
820 173 201 200 
821 121 493 147 
822 78 536 535 
823 165 498 167 
824 150 207 204 
825 250 277 249 
826 196 491 484 
827 115 494 117 
828 22 83 23 
829 201 227 200 
830 237 259 258 
831 7 84 8 
832 311 502 309 
833 145 150 146 
834 309 502 312 
835 279 341 281 
836 257 340 339 
837 291 342 278 
838 85 538 65 
839 66 85 65 
840 53 86 52 
841 299 303 258 
842 77 530 12 
843 213 493 119 
844 259 300 299 
845 173 200 172 
846 278 505 279 
847 191 192 188 
848 150 204 151 
849 167 173 172 
850 454 516 216 
851 276 371 275 
852 324 370 269 
853 151 500 153 
854 224 234 222 
855 174 209 208 
856 69 87 68 
857 50 88 49 
858 163 501 162 
859 19 533 78 
860 540 611 554 
861 552 558 190 
862 86 539 52 
863 185 496 182 
864 364 502 311 
865 138 495 290 
866 207 214 204 
867 117 494 213 
868 263 484 317 
869 492 509 491 
870 481 517 495 
871 222 223 205 
872 314 356 271 
873 308 508 286 
874 23 543 24 
875 162 501 165 
876 51 545 50 
877 302 383 300 
878 286 508 284 
879 304 494 115 
880 252 504 250 
881 215 236 214 
882 237 258 236 
883 250 504 277 
884 174 328 209 
885 292 343 272 
886 342 505 278 
887 209 225 220 
888 299 380 303 
889 74 602 385 
890 249 506 228 
891 259 299 258 
892 204 500 151 
893 508 525 169 
894 228 506 227 
895 142 553 464 
896 225 254 241 
897 350 573 568 
898 497 528 231 
899 436 526 509 
900 216 516 217 
901 238 270 234 
902 24 101 25 
903 5 102 6 
904 255 293 269 
905 153 500 174 
906 254 511 257 
907 292 361 343 
908 247 506 291 
909 260 549 459 
910 539 545 51 
911 102 544 6 
912 227 506 247 
913 64 538 103 
914 372 504 275 
915 324 527 370 
916 111 503 113 
917 270 292 272 
918 150 512 207 
919 275 504 252 
920 495 517 290 
921 225 255 254 
922 279 505 341 
923 200 507 172 
924 270 272 234 
925 463 559 168 
926 293 324 269 
927 290 512 145 
928 204 524 500 
929 236 510 244 
930 312 525 308 
931 486 549 260 
932 255 269 254 
933 249 523 506 
934 337 567 564 
935 340 358 357 
936 491 509 484 
937 113 503 304 
938 243 517 481 
939 359 388 356 
940 303 510 258 
941 96 569 38 
942 506 523 291 
943 135 553 142 
944 168 520 122 
945 370 511 269 
946 37 569 75 
947 165 501 498 
948 291 523 360 
949 257 511 340 
950 191 513 192 
951 484 509 317 
952 489 546 490 
953 145 512 150 
954 192 514 188 
955 244 524 214 
956 83 543 23 
957 562 564 217 
958 223 513 205 
959 174 500 328 
960 490 546 447 
961 512 518 478 
962 205 513 191 
963 500 524 328 
964 22 540 83 
965 185 514 496 
966 486 563 549 
967 35 574 95 
968 516 562 217 
969 258 510 236 
970 188 514 185 
971 487 556 243 
972 394 503 111 
973 222 515 223 
974 269 511 254 
975 75 574 36 
976 190 558 176 
977 517 518 290 
978 455 563 454 
979 290 518 512 
980 42 550 43 
981 24 543 101 
982 331 547 293 
983 277 523 249 
984 328 519 209 
985 293 547 324 
986 7 544 84 
987 487 561 556 
988 163 558 501 
989 225 519 255 
990 234 515 222 
991 418 589 304 
992 365 537 402 
993 272 515 234 
994 209 519 225 
995 428 571 427 
996 50 545 88 
997 298 582 565 
998 308 525 508 
999 317 526 318 
1000 364 559 502 
1001 501 558 433 
1002 214 524 204 
1003 137 553 135 
1004 509 526 317 
1005 475 551 190 
1006 427 576 298 
1007 496 548 475 
1008 514 548 496 
1009 142 546 489 
1010 395 570 387 
1011 548 551 475 
1012 502 559 463 
1013 211 567 212 
1014 104 609 381 
1015 571 576 427 
1016 294 562 296 
1017 433 558 552 
1018 460 577 424 
1019 518 556 479 
1020 458 555 137 
1021 582 585 565 
1022 429 552 551 
1023 137 555 553 
1024 337 564 327 
1025 433 552 431 
1026 367 537 365 
1027 383 572 300 
1028 176 558 163 
1029 519 541 330 
1030 549 563 455 
1031 350 568 338 
1032 299 572 380 
1033 296 562 516 
1034 511 542 340 
1035 517 556 518 
1036 302 575 383 
1037 402 559 364 
1038 340 542 358 
1039 243 556 517 
1040 43 550 90 
1041 328 541 519 
1042 244 541 524 
1043 524 541 328 
1044 244 566 541 
1045 564 567 217 
1046 556 561 479 
1047 370 542 511 
1048 479 561 499 
1049 568 573 212 
1050 541 566 330 
1051 38 569 37 
1052 599 646 531 
1053 300 572 299 
1054 551 552 190 
1055 417 593 418 
1056 567 568 212 
1057 334 575 302 
1058 36 574 35 
1059 529 570 395 
1060 297 562 294 
1061 514 571 548 
1062 296 563 486 
1063 147 561 487 
1064 576 582 298 
1065 297 564 562 
1066 499 578 333 
1067 327 564 297 
1068 438 590 315 
1069 330 566 331 
1070 217 567 211 
1071 413 595 415 
1072 333 584 332 
1073 58 620 522 
1074 67 608 415 
1075 319 590 522 
1076 338 568 337 
1077 352 573 350 
1078 510 566 244 
1079 561 578 499 
1080 548 571 428 
1081 352 577 573 
1082 147 578 561 
1083 344 588 585 
1084 212 573 474 
1085 332 587 334 
1086 577 580 424 
1087 192 576 571 
1088 344 585 515 
1089 346 619 543 
1090 584 587 332 
1091 192 571 514 
1092 474 577 460 
1093 573 577 474 
1094 522 630 58 
1095 337 568 567 
1096 578 584 333 
1097 513 576 192 
1098 493 578 147 
1099 566 579 331 
1100 366 595 367 
1101 353 580 352 
1102 303 579 510 
1103 510 579 566 
1104 587 589 334 
1105 353 581 580 
1106 355 581 353 
1107 378 617 99 
1108 363 592 366 
1109 93 594 434 
1110 585 588 565 
1111 223 585 582 
1112 493 584 578 
1113 223 582 513 
1114 355 583 581 
1115 513 582 576 
1116 375 583 355 
1117 345 588 344 
1118 213 584 493 
1119 26 610 27 
1120 335 646 599 
1121 375 586 583 
1122 515 585 223 
1123 390 627 107 
1124 345 591 588 
1125 439 586 375 
1126 591 639 637 
1127 213 587 584 
1128 352 580 577 
1129 418 593 589 
1130 494 587 213 
1131 382 622 104 
1132 28 625 2 
1133 2 626 28 
1134 2 625 71 
1135 47 626 2 
1136 46 627 1 
1137 1 627 3 
1138 315 590 319 
1139 87 614 421 
1140 494 589 587 
1141 565 588 276 
1142 304 589 494 
1143 336 599 348 
1144 588 591 276 
1145 534 597 533 
1146 407 611 536 
1147 62 602 74 
1148 78 597 536 
1149 25 601 26 
1150 103 602 63 
1151 276 591 371 
1152 560 625 105 
1153 400 615 88 
1154 560 614 70 
1155 74 605 61 
1156 60 605 97 
1157 108 626 399 
1158 348 596 349 
1159 107 643 388 
1160 323 612 322 
1161 73 609 56 
1162 9 607 99 
1163 547 604 324 
1164 84 607 8 
1165 362 592 363 
1166 98 599 531 
1167 55 609 104 
1168 87 608 68 
1169 326 613 335 
1170 367 595 413 
1171 347 621 554 
1172 345 639 591 
1173 589 593 334 
1174 42 642 550 
1175 45 643 107 
1176 80 604 547 
1177 538 592 103 
1178 357 619 339 
1179 77 596 530 
1180 532 616 100 
1181 550 642 361 
1182 59 620 58 
1183 11 617 77 
1184 99 617 10 
1185 281 623 283 
1186 48 615 399 
1187 79 642 41 
1188 104 622 54 
1189 314 635 359 
1190 426 603 579 
1191 53 622 86 
1192 58 630 57 
1193 90 643 44 
1194 543 619 101 
1195 441 606 323 
1196 579 603 331 
1197 334 593 575 
1198 5 640 102 
1199 504 634 277 
1200 535 611 540 
1201 434 594 435 
1202 86 612 539 
1203 359 598 390 
1204 349 596 386 
1205 523 633 360 
1206 440 638 94 
1207 76 636 440 
1208 636 638 440 
1209 592 645 366 
1210 534 616 329 
1211 439 600 369 
1212 419 632 93 
1213 544 600 84 
1214 82 631 419 
1215 92 628 408 
1216 408 629 82 
1217 631 632 419 
1218 362 641 592 
1219 533 597 78 
1220 592 641 103 
1221 88 615 49 
1222 70 614 69 
1223 335 599 336 
1224 101 601 25 
1225 591 637 371 
1226 69 614 87 
1227 63 602 62 
1228 398 624 401 
1229 629 631 82 
1230 106 610 391 
1231 628 629 408 
1232 415 608 414 
1233 49 615 48 
1234 359 635 598 
1235 538 645 592 
1236 331 603 547 
1237 360 633 594 
1238 61 605 60 
1239 324 604 527 
1240 536 611 535 
1241 102 640 598 
1242 8 607 9 
1243 68 608 67 
1244 329 616 557 
1245 545 606 88 
1246 56 609 55 
1247 361 647 343 
1248 46 644 106 
1249 554 611 407 
1250 366 645 595 
1251 390 640 4 
1252 421 614 560 
1253 322 612 384 
1254 557 613 326 
1255 594 633 435 
1256 399 615 400 
1257 590 630 522 
1258 400 624 398 
1259 100 616 534 
1260 401 628 92 
1261 10 617 11 
1262 522 620 521 
1263 521 620 97 
1264 283 618 441 
1265 1 644 46 
1266 339 619 346 
1267 97 620 59 
1268 346 621 347 
1269 54 622 53 
1270 105 625 28 
1271 28 626 108 
1272 107 627 46 
1273 341 623 281 
1274 73 630 590 
1275 27 644 1 
1276 613 646 335 
1277 103 641 602 
1278 57 630 73 
1279 505 629 341 
1280 342 632 631 
1281 435 636 76 
1282 341 629 628 
1283 342 631 505 
1284 94 637 437 
1285 598 635 102 
1286 343 647 345 
1287 360 632 342 
1288 505 631 629 
1289 368 635 314 
1290 637 639 437 
1291 437 639 79 
1292 441 618 606 
1293 277 633 523 
1294 372 634 504 
1295 385 641 362 
1296 44 643 45 
1297 41 642 42 
1298 371 638 372 
1299 372 638 636 
1300 4 640 5 
1301 531 646 72 
1302 85 645 538 
1303 106 644 610 
1304 595 645 85 
1305 618 624 400 
1306 598 640 390 
1307 602 641 385 
1308 623 628 401 
1309 283 624 618 
1310 341 628 623 
1311 610 644 27 
1312 72 646 613 
1313 634 636 435 
1314 345 647 639 
1315 372 636 634 
1316 639 647 79 
$EndElements
