$MeshFormat
4.1 0 8
$EndMeshFormat
$Entities
2 3 3 1
1 5 2.5 3.5 0 
2 0 2.5 3.5 0 
1 4.9999999 1.4999999 1.4999999 5.0000001 3.5000001 3.5000001 0 2 1 -1 
2 -9.999999983634211e-08 2.499999900000001 3.4999999 5.0000001 2.5000001 3.5000001 0 2 2 -1 
3 -1e-07 1.4999999 1.4999999 1e-07 3.5000001 3.5000001 0 2 2 -2 
1 -9.999999983634211e-08 1.4999999 1.4999999 5.0000001 3.5000001 3.5000001 0 4 -1 -2 3 2 
2 4.9999999 1.4999999 1.4999999 5.0000001 3.5000001 3.5000001 0 1 1 
3 -1e-07 1.4999999 1.4999999 1e-07 3.5000001 3.5000001 0 1 3 
1 -9.999999983634211e-08 1.4999999 1.4999999 5.0000001 3.5000001 3.5000001 0 3 1 2 -3 
$EndEntities
$Nodes
9 352 1 352
0 1 0 1
1
5 2.5 3.5
0 2 0 1
2
0 2.5 3.5
1 1 0 16
3
4
5
6
7
8
9
10
11
12
13
14
15
16
17
18
5 2.138758333812847 3.432472229404356
5 1.826304356353442 3.239008917220659
5 1.604836708644937 2.945738355776538
5 1.504265823704965 2.592268359463301
5 1.538174356827181 2.226337009927915
5 1.701982772719762 1.897365363620742
5 1.973567837122647 1.649782864270384
5 2.316250482183434 1.517026900316097
5 2.683749517816575 1.517026900316099
5 3.026432162877359 1.649782864270388
5 3.298017227280242 1.897365363620748
5 3.46182564317282 2.226337009927921
5 3.495734176295034 2.592268359463305
5 3.395163291355061 2.945738355776541
5 3.173695643646556 3.23900891722066
5 2.861241666187152 3.432472229404356
1 2 0 13
19
20
21
22
23
24
25
26
27
28
29
30
31
0.3571428571428578 2.5 3.5
0.7142857142857155 2.5 3.5
1.071428571428573 2.5 3.5
1.428571428571429 2.5 3.5
1.785714285714287 2.5 3.5
2.142857142857144 2.5 3.5
2.500000000000001 2.5 3.5
2.857142857142858 2.5 3.5
3.214285714285715 2.5 3.5
3.571428571428572 2.5 3.5
3.928571428571429 2.5 3.5
4.285714285714286 2.5 3.5
4.642857142857143 2.5 3.5
1 3 0 16
32
33
34
35
36
37
38
39
40
41
42
43
44
45
46
47
0 2.138758333812847 3.432472229404356
0 1.826304356353442 3.239008917220659
0 1.604836708644937 2.945738355776538
0 1.504265823704965 2.592268359463301
0 1.538174356827181 2.226337009927915
0 1.701982772719762 1.897365363620742
0 1.973567837122647 1.649782864270384
0 2.316250482183434 1.517026900316097
0 2.683749517816575 1.517026900316099
0 3.026432162877359 1.649782864270388
0 3.298017227280242 1.897365363620748
0 3.46182564317282 2.226337009927921
0 3.495734176295034 2.592268359463305
0 3.395163291355061 2.945738355776541
0 3.173695643646556 3.23900891722066
0 2.861241666187152 3.432472229404356
2 1 0 253
48
49
50
51
52
53
54
55
56
57
58
59
60
61
62
63
64
65
66
67
68
69
70
71
72
73
74
75
76
77
78
79
80
81
82
83
84
85
86
87
88
89
90
91
92
93
94
95
96
97
98
99
100
101
102
103
104
105
106
107
108
109
110
111
112
113
114
115
116
117
118
119
120
121
122
123
124
125
126
127
128
129
130
131
132
133
134
135
136
137
138
139
140
141
142
143
144
145
146
147
148
149
150
151
152
153
154
155
156
157
158
159
160
161
162
163
164
165
166
167
168
169
170
171
172
173
174
175
176
177
178
179
180
181
182
183
184
185
186
187
188
189
190
191
192
193
194
195
196
197
198
199
200
201
202
203
204
205
206
207
208
209
210
211
212
213
214
215
216
217
218
219
220
221
222
223
224
225
226
227
228
229
230
231
232
233
234
235
236
237
238
239
240
241
242
243
244
245
246
247
248
249
250
251
252
253
254
255
256
257
258
259
260
261
262
263
264
265
266
267
268
269
270
271
272
273
274
275
276
277
278
279
280
281
282
283
284
285
286
287
288
289
290
291
292
293
294
295
296
297
298
299
300
4.688310306278268 2.880854838622717 1.575365157536412
2.318911199540798 2.804469523701672 3.452522078031201
2.32113442181801 2.194151014842579 3.45208003774797
0.3106537070864175 2.120879337698962 1.57465275522298
3.392822783976032 2.804711715811904 3.452444628441447
3.392857142857143 2.194426113314859 3.452168367346939
0.3330640648662742 3.419335171115909 2.106524660049347
0.317807710037205 1.504265823704966 2.407731640536697
4.682192289962662 1.604836708644939 2.05426164422346
4.682192289962795 3.495734176295035 2.407731640536702
1.243860896796027 2.803669252474532 3.452777510808037
1.250000000000001 2.194426113314867 3.452168367346943
4.107142857142721 2.804880427493078 3.452390636730348
4.107142857142858 2.194426113314857 3.452168367346939
0.3168266639711543 3.272949634871514 3.134467384466682
0.3193541373539007 1.6734543558283 3.062869699043028
4.671033826233395 1.545785156226624 2.799122102029509
4.683696847106926 2.114393627677501 1.57733661304662
0.29549217005867 2.876095156879192 1.573418954989896
4.682695273424408 3.324851834022756 3.065348964719398
0.5357142857142867 2.805573886685782 3.452168367346734
0.5357142857142867 2.194426113314855 3.452168367346939
4.684884708445003 1.943800924843607 3.331049089281237
2.678995118482679 2.194155325742384 3.452081422583307
2.500398666444308 1.917004443483108 3.312475341829867
2.141369666316301 1.91708788122206 3.312535206487579
2.320609120914429 1.695405311690557 3.093824374326475
2.680365016913847 1.695576734603377 3.094056571454802
2.500513144159438 1.551446044801538 2.816615530379283
2.862075695614301 1.551564514541317 2.816970235073821
2.681123469665357 1.500028552631453 2.507556748484247
2.319958175788102 1.50003431115446 2.508283787277878
2.499891521960599 1.546962266775974 2.197148420754967
2.137798382417123 1.546703831477989 2.197962891218226
2.318257981845543 1.688151448281645 1.91613192494125
2.681125869327881 1.688113948852964 1.916184070144645
1.954742514083938 1.687992836273795 1.916352532724314
2.136042787492906 1.909917081451383 1.692657353264956
1.773912259376241 1.546582271117894 2.198346831189714
1.772259927842447 1.909611053054469 1.6928811169818
1.953786537454701 2.190202598703051 1.549197407371195
2.317477178176092 2.190427715871341 1.549124087538566
2.135491680692069 2.501411654010533 1.500000996384019
2.499082007659618 2.501564225562873 1.500001223401554
2.317118994794651 2.812263226934964 1.550004380481592
2.680683478436102 2.812524391746107 1.550090265044238
1.953648899131656 2.812040956832724 1.549931349186324
2.135202865314589 3.091951763544512 1.694026607364398
1.772054383766708 3.0917199412291 1.693856395453124
1.953233065296183 3.312913820571266 1.917616002688752
2.316128356724545 3.313203861446939 1.918021065907203
1.589797763276098 2.812418198009458 1.550055333425929
1.590197522619859 3.312742280113568 1.917376634423405
1.771206381496984 3.45346786958149 2.198505353819118
1.40862127852861 3.45338099966014 2.198230767825756
1.589495362499968 3.499961480552374 2.508777095846799
1.951574240523423 3.49995929437342 2.509022726650591
3.043228532102507 1.500030284892508 2.507782600326449
2.862867197296394 2.501648907508581 1.50000135944891
3.044613029992403 2.813034030305284 1.550258089862919
3.227040771486352 2.50173026364395 1.500001496907259
3.408904962368859 2.813508331836107 1.550414550517258
3.226134568356931 3.093584695755024 1.695228474058994
3.590696899490272 3.094067447574513 1.695584766596067
3.407908970632342 3.314938483774279 1.920452532001321
3.591598343769077 2.501919887268834 1.500001842985261
3.408091086465117 2.189736498035563 1.549349402067845
1.227134521894865 3.4999630260606 2.508599215762364
1.770299588990756 3.448183064626694 2.817724528412792
1.235923302240513 3.316115249940989 1.922110824799636
3.77233766703021 3.315365186852105 1.921053014456736
3.58954225563089 3.454970463231627 2.20329911635593
3.226114049753984 3.454873585709433 2.20298748289944
3.407412196385846 3.499897327252921 2.514329513336686
3.045046468865853 3.499892646381653 2.514652498486412
3.770395794208453 3.499886057877265 2.515095405349422
1.960647137843602 1.695709063524041 3.094235718804099
2.131560826650864 3.448081000931128 2.81802895414322
3.224182334110058 1.551802636481662 2.817681853143791
3.405865288549345 1.500032195950259 2.508024391811122
3.587010539636161 1.551999934942877 2.818270131573307
3.769115543560225 1.500035604635108 2.5084384834257
3.772709042774837 2.190491060724247 1.549103466980556
3.587695891172185 1.547029818704286 2.196935924990747
3.588459573518207 3.445997504833177 2.824173905256735
3.95647583831679 2.502372928471893 1.50000281539873
3.951114898128486 3.44574870046793 2.824899054420326
3.950182578571392 1.552212691256123 2.818903147341067
2.31487844293811 3.499941484161176 2.510817959768154
2.492717031116663 3.447799573822882 2.818866692931642
3.951539879741397 1.546896832522668 2.197354411655025
1.950655448200899 3.303863532568982 3.094813770020262
1.590739310545184 3.30402208936371 3.094599428031354
3.762208917015804 1.697285220018626 3.096363129309194
3.763081087372175 3.29954677034456 3.100603831182904
1.589944751601136 2.189826456452511 1.54932004708041
1.407932333472064 1.908991853394219 1.693334412134991
1.225167940332258 2.189750592277541 1.549344802250646
1.042996246040508 1.908342996147661 1.693810202376343
1.226239235001654 1.686297322620191 1.918718697337571
0.8607394966859716 1.685892350470437 1.919286012758906
1.047483826270402 1.545649662110022 2.201310474624091
3.955554642213174 3.094583527713229 1.695966152098003
4.137255281324236 3.315903498252019 1.921811897787478
4.126766382086698 1.698145478933424 3.097519311022742
3.401310074892966 3.300350000646985 3.099533048684033
2.862002192494666 3.454833794817869 2.202859588285759
1.783792196764871 1.918006896903331 3.313193721045551
1.601743790922789 1.696500326811436 3.095305194993182
1.780142840986552 1.55187575450488 2.817900008028168
1.418722495314468 1.55204155862503 2.818394085098856
1.238640911420415 1.697028359131636 3.096017234617563
1.056468781785979 1.552144757924681 2.81870117676334
1.776415061178212 3.081989547478282 3.313196265747713
3.769819102987367 1.688596862739285 1.915513089245388
3.406061330221646 1.687799391543893 1.916621759384591
4.123925692530663 1.690419850532604 1.912990646081045
0.8953697185256904 1.702617114884734 3.103473723143977
4.108192773811448 3.293310552094041 3.108817187615666
4.341482601688757 3.429629919378858 2.868494522341456
0.8741659028665889 2.197938455167903 1.546711574006247
1.044625234677343 2.503766114790722 1.500007091835456
0.6628826178053857 1.568406262768615 2.863501181224025
4.122794019426689 2.19865710693289 1.546484158077096
0.6766373792580106 2.502498870339974 1.500003122181362
0.8594689026918153 2.815437766243619 1.5510537340675
4.322470181888241 2.502727251578007 1.5000037189575
4.363619876639494 3.067653275298846 1.676732267702364
4.448715698599043 3.307791111361679 1.910531153999584
4.356936764753412 3.460875648800084 2.22301987879449
0.6366618611709102 1.539328938699962 2.222311123772199
0.5501089442074774 1.687441510242056 1.917120337700577
4.348191009704359 1.543655337488286 2.207758855591217
4.300057845393136 1.553486791743204 2.822665068756176
4.479336543335455 1.699750183463719 3.099666766741036
3.225438983842821 3.446294236026694 2.823306694738379
3.041948629799934 3.300300421569232 3.099599228848827
2.134011018350229 3.453575089695101 2.198844644223318
2.498270642131994 3.454401193559467 2.201473013393656
2.67950375613463 3.314574703063712 1.919941336476502
3.044019726439092 3.314659908423181 1.920061008719078
1.408796067863185 3.448186582320044 2.817714030392481
1.045994618639636 3.44806381140693 2.818080193505607
0.8641878462909874 3.499969372224962 2.507826532566551
0.6952367120867026 3.452232093661054 2.805375244251862
0.8841632779493092 3.309667753026215 3.086888515571297
0.5180670433411472 3.499487249781198 2.46798066951329
0.7169365648183967 3.444686994365965 2.172026704325187
0.62122421813183 3.277526921092556 1.871150346285911
1.232143109295579 3.304888056948283 3.093426672624358
1.060918876320619 3.083200158498135 3.312328489668896
3.959897783050989 3.456090099616568 2.206927105628683
3.400388626739987 1.696835339912961 3.095757105528143
3.043215683966585 1.69685023144002 3.095777180883969
2.498515378777753 3.092497132103864 1.69442744060594
2.862244989689485 3.093182140596539 1.694931712165168
2.499534941651862 1.910053346618943 1.692557775339628
2.862220117244917 1.909221545203051 1.693166177365048
1.225098116819674 2.814229972621466 1.550653106443007
2.312412308441418 3.303541966228961 3.095248106682327
2.674549566919341 3.302366518271539 3.096831609716516
2.86330998944747 3.446059059128774 2.823994223158961
2.856224359513425 3.079478787949269 3.314987321568161
2.136732816444823 3.081730163743143 3.313381839354295
1.771722803974577 2.501186623167809 1.500000704037519
3.043980804925339 2.189504828310909 1.549425043272356
2.680901931273711 2.19026919440118 1.549175711257277
1.40768252647116 2.501228110836884 1.500000754128398
1.590774314282907 1.68784184987611 1.916562651874821
2.682015536527069 3.499883599368963 2.51525738224494
3.77368998151016 2.813992653216101 1.550574587591888
4.138909202902792 2.814890357294266 1.550871946003549
1.963668428435578 2.194189606005305 3.452092434023509
1.412291380283713 1.546295436296306 2.199254916630801
0.6446448114744693 1.936674294359211 1.673765076165194
4.123987628481718 1.500163942902457 2.518106875148373
2.862190603417246 1.546904051260931 2.197331679065724
2.858829080967932 1.917765261603978 3.313020731227018
3.035714285714286 2.194426113314668 3.452168367346879
0.892857142857144 2.194426113314667 3.452168367346878
3.749995909656998 2.80387346346512 3.452712400570976
3.224808069722764 1.546890551904004 2.197374191533264
1.409246557255029 3.093248193113336 1.694980384482613
2.140445736631454 1.551764169678154 2.81756701669701
4.134326487214872 3.499433672185092 2.533650184288089
1.061875564451495 3.453832716063203 2.199661607902863
3.750000000000001 2.194426113311345 3.452168367345812
4.464285714285715 2.805573886688249 3.452168367345942
3.043357390317075 1.687542843943657 1.916979100226383
4.298497938978379 1.926078379575823 3.318910235379732
4.647148838113335 2.500403808295251 1.500000081530573
0.3491384161618059 2.500511409732985 1.500000130769966
1.958488255954432 1.500035213621584 2.508392020207805
3.225265947215125 1.909505832079827 1.692958094240291
4.688750207755849 3.469040835535748 2.74690050438219
3.215301209059697 1.919773466097616 3.314455136490418
4.687709339970035 1.504805759861192 2.402079499620662
0.3132105739858918 1.530336159773483 2.744442297806997
4.684008308293898 1.821403390533751 1.765488841731515
1.607142857142858 2.194540180377865 3.452204966693838
3.035488132888803 2.803904108074336 3.452702625741916
3.589047487012009 1.909900180614069 1.692669706278347
0.9782337635844478 3.118582616401326 1.714280236543531
1.597266294693387 1.500041260629161 2.509084027514363
3.948768783859918 1.911736060211263 1.691331008913886
1.42545805461328 1.918012158728558 3.313197486845727
2.496233613238539 3.081182796500586 3.313773037800932
2.677333360387403 2.804493500253901 3.452514413698359
1.961295560479687 2.804851124353454 3.452400016789392
1.601914754187609 2.805564605323945 3.452171345910609
1.234422448395977 1.500053474497028 2.510341476419419
1.417665334720538 3.082719226002002 3.312673552939695
1.071428571428751 1.919395473470403 3.314185718232237
3.57488788737453 1.918764564375171 3.31373544126701
0.8695230856912524 1.500409945390413 2.528630800296251
3.215778395443366 3.079054798094666 3.315288624232882
0.7167456333192305 1.933508849712748 3.324067822843622
3.936583997099711 1.919664847609998 3.314377744600424
0.8871776471974769 2.805564251106764 3.452171459583599
3.575259946652085 3.078848539945384 3.315435078840184
0.3046676380122418 3.180135678596506 1.766913744024573
0.6545478782688775 3.113997350155274 3.289308085605552
3.931564476724502 3.077028717664945 3.31672385724304
0.2944495991911641 3.012315330446487 3.358797416268532
4.285107432848287 3.063438320522522 3.326158131937682
0.3356591535018731 1.947215500701105 3.33332424501803
4.345872674508287 1.934304741452562 1.675385620755406
4.673093357588913 3.04880509769547 3.33595033629006
0.3351317661443555 3.458870970575678 2.783842318527836
4.460177515289084 2.208694492321699 3.456630075419066
4.70524271354259 3.142804350329494 1.733969604260068
0.2947538658145382 1.845182172442939 1.744213249181059
0.6066777005440365 3.019924991726202 1.645788080756005
0.9228386826453365 3.343056401766785 1.96217483933899
4.438505594958686 1.699605894460657 1.900525833902849
0.2866946779678302 1.584983412806516 2.096583781733072
4.713223484887264 3.414786289291957 2.096061830321209
0.5694221374021604 1.50136878609436 2.552303906291475
4.43358342269179 3.498371633222189 2.557044561329357
4.424838913919801 1.501306825976551 2.551107183046706
0.2300642063497946 3.496544953499904 2.416944863771869
0.5935762844217709 1.73614150183971 3.145383757766111
4.777932343103947 1.701589287823243 3.102113224137623
0.2596087671926661 2.760308060781354 3.465525615140402
0.2596087671927299 2.239691939218913 3.465525615140474
4.418453282744362 2.238383251461071 1.534828161991908
4.406643663651726 3.261881943447825 3.147715913227524
4.740391232807068 2.760308060781586 3.465525615140339
0.5802061459443288 2.238934918056669 1.534678798021134
4.741968158596839 2.241069670323499 3.465896000806308
4.417111248775549 2.766674198098557 1.536213264218431
0.574863153787519 2.760935668998277 1.534643808408305
0.5771812596840799 3.344873062123321 3.034966829717845
2 2 0 26
301
302
303
304
305
306
307
308
309
310
311
312
313
314
315
316
317
318
319
320
321
322
323
324
325
326
5 2.648716040468524 3.182142363876801
5 2.500000000000003 1.835290401040681
5 3.161874064995162 2.438668335784516
5 1.860665262457806 2.681906416380822
5 3.041388009540593 2.93091074487877
5 2.990488364040347 2.004230191120824
5 2.052188038891058 2.008773679006894
5 2.150075488134505 3.065147491319173
5 2.227142740869293 1.795674224359936
5 1.907017495358322 2.946994099703764
5 3.173780002820803 2.704613447961933
5 2.779409673606039 1.853178281904624
5 2.904562984711695 3.153391654878686
5 1.812067235832399 2.157450185741307
5 2.063188191387338 2.377162621070039
5 2.352696291924097 2.13848266151953
5 2.430719675149161 2.491078736260221
5 2.689815771591632 2.215730200028392
5 2.840229518908494 2.601300442263255
5 2.498018649038383 2.852535830012265
5 2.162757125827992 2.732929592964377
5 1.742392835617006 2.421049926559125
5 3.187932764167604 2.157450185741311
5 2.387113702290852 3.206459582922519
5 2.774053992523291 2.933024999653586
5 2.962937690640435 2.279885215868516
2 3 0 26
327
328
329
330
331
332
333
334
335
336
337
338
339
340
341
342
343
344
345
346
347
348
349
350
351
352
0 2.648716040468524 3.182142363876801
0 2.500000000000003 1.835290401040681
0 3.161874064995162 2.438668335784516
0 1.860665262457806 2.681906416380822
0 3.041388009540593 2.93091074487877
0 2.990488364040347 2.004230191120824
0 2.052188038891058 2.008773679006894
0 2.150075488134505 3.065147491319173
0 2.227142740869293 1.795674224359936
0 1.907017495358322 2.946994099703764
0 3.173780002820803 2.704613447961933
0 2.779409673606039 1.853178281904624
0 2.904562984711695 3.153391654878686
0 1.812067235832399 2.157450185741307
0 2.063188191387338 2.377162621070039
0 2.352696291924097 2.13848266151953
0 2.430719675149161 2.491078736260221
0 2.689815771591632 2.215730200028392
0 2.840229518908494 2.601300442263255
0 2.498018649038383 2.852535830012265
0 2.162757125827992 2.732929592964377
0 1.742392835617006 2.421049926559125
0 3.187932764167604 2.157450185741311
0 2.387113702290852 3.206459582922519
0 2.774053992523291 2.933024999653586
0 2.962937690640435 2.279885215868516
3 1 0 0
$EndNodes
$Elements
6 616 1 616
0 1 15 1
1 1 
0 2 15 1
2 2 
1 1 1 17
3 1 3 
4 3 4 
5 4 5 
6 5 6 
7 6 7 
8 7 8 
9 8 9 
10 9 10 
11 10 11 
12 11 12 
13 12 13 
14 13 14 
15 14 15 
16 15 16 
17 16 17 
18 17 18 
19 18 1 
1 2 1 14
20 2 19 
21 19 20 
22 20 21 
23 21 22 
24 22 23 
25 23 24 
26 24 25 
27 25 26 
28 26 27 
29 27 28 
30 28 29 
31 29 30 
32 30 31 
33 31 1 
1 3 1 17
34 2 32 
35 32 33 
36 33 34 
37 34 35 
38 35 36 
39 36 37 
40 37 38 
41 38 39 
42 39 40 
43 40 41 
44 41 42 
45 42 43 
46 43 44 
47 44 45 
48 45 46 
49 46 47 
50 47 2 
2 1 2 566
51 250 280 196 
52 194 195 54 
53 54 288 194 
54 63 245 170 
55 170 289 63 
56 62 271 269 
57 196 281 250 
58 67 242 167 
59 269 300 62 
60 167 294 67 
61 279 283 37 
62 278 284 13 
63 173 280 250 
64 179 283 279 
65 176 284 278 
66 246 274 65 
67 56 244 180 
68 175 278 48 
69 222 279 51 
70 274 293 65 
71 48 298 175 
72 70 237 182 
73 51 296 222 
74 57 284 177 
75 273 289 264 
76 55 283 178 
77 64 182 181 
78 195 196 54 
79 275 294 272 
80 69 273 264 
81 237 265 152 
82 244 287 180 
83 235 275 272 
84 208 210 184 
85 182 290 70 
86 61 265 237 
87 136 217 186 
88 177 286 57 
89 184 209 208 
90 186 217 154 
91 211 254 207 
92 208 209 137 
93 178 285 55 
94 269 271 68 
95 209 217 137 
96 58 259 198 
97 198 259 197 
98 137 217 136 
99 49 254 211 
100 177 284 176 
101 156 253 159 
102 154 187 186 
103 64 290 182 
104 193 198 197 
105 193 197 190 
106 187 203 202 
107 63 289 273 
108 114 241 213 
109 81 240 86 
110 112 188 120 
111 64 244 6 
112 34 245 63 
113 57 242 15 
114 132 183 153 
115 183 184 153 
116 257 259 58 
117 187 202 98 
118 188 203 187 
119 110 188 112 
120 200 243 201 
121 161 256 211 
122 178 283 179 
123 120 188 154 
124 77 201 75 
125 154 188 187 
126 103 189 116 
127 16 242 67 
128 121 183 132 
129 9 246 65 
130 3 70 4 
131 99 215 206 
132 185 186 98 
133 200 201 126 
134 132 153 142 
135 16 67 17 
136 114 249 241 
137 46 62 45 
138 141 200 128 
139 186 187 98 
140 34 63 33 
141 122 209 183 
142 7 244 56 
143 126 201 77 
144 104 185 101 
145 116 189 140 
146 5 64 6 
147 55 245 35 
148 128 200 126 
149 154 217 122 
150 151 199 177 
151 86 221 216 
152 103 104 101 
153 190 197 189 
154 206 215 169 
155 122 183 121 
156 103 116 104 
157 140 161 139 
158 120 121 119 
159 120 122 121 
160 112 120 119 
161 14 57 15 
162 56 246 8 
163 7 56 8 
164 116 139 125 
165 102 103 101 
166 161 257 256 
167 101 185 97 
168 139 211 207 
169 97 185 98 
170 116 125 104 
171 35 245 34 
172 192 193 190 
173 36 55 35 
174 6 244 7 
175 161 211 139 
176 132 142 134 
177 202 203 93 
178 43 54 42 
179 135 141 128 
180 116 140 139 
181 121 132 123 
182 100 101 97 
183 15 242 16 
184 112 119 118 
185 136 185 104 
186 207 254 208 
187 115 189 103 
188 110 112 111 
189 139 207 125 
190 182 237 152 
191 97 98 95 
192 183 209 184 
193 201 225 75 
194 216 221 147 
195 9 65 10 
196 88 212 90 
197 98 202 95 
198 90 92 91 
199 189 197 140 
200 96 97 95 
201 266 269 68 
202 41 66 40 
203 8 246 9 
204 125 207 137 
205 207 208 137 
206 110 203 188 
207 122 217 209 
208 120 154 122 
209 95 202 92 
210 94 95 92 
211 151 177 176 
212 88 90 89 
213 121 123 119 
214 92 202 93 
215 87 88 85 
216 100 102 101 
217 90 94 92 
218 172 173 169 
219 147 149 148 
220 125 137 136 
221 107 110 109 
222 88 89 85 
223 161 259 257 
224 39 51 38 
225 11 48 12 
226 90 212 94 
227 112 118 111 
228 73 155 124 
229 92 93 91 
230 84 85 82 
231 113 114 108 
232 152 265 141 
233 173 206 169 
234 90 91 89 
235 85 204 82 
236 213 214 106 
237 127 128 126 
238 110 111 109 
239 102 115 103 
240 107 203 110 
241 240 251 86 
242 108 213 106 
243 105 126 77 
244 142 166 134 
245 131 163 162 
246 96 100 97 
247 135 152 141 
248 94 96 95 
249 132 134 123 
250 93 203 107 
251 136 186 185 
252 144 147 146 
253 141 261 200 
254 125 136 104 
255 149 178 148 
256 118 199 151 
257 82 83 80 
258 168 169 145 
259 89 204 85 
260 204 205 83 
261 143 212 88 
262 75 225 72 
263 131 229 163 
264 72 225 71 
265 82 204 83 
266 113 130 114 
267 114 213 108 
268 156 159 158 
269 147 148 146 
270 81 82 80 
271 115 190 189 
272 93 106 91 
273 84 87 85 
274 129 135 128 
275 93 107 106 
276 168 172 169 
277 119 199 118 
278 87 143 88 
279 81 84 82 
280 204 214 205 
281 105 127 126 
282 106 214 91 
283 118 151 150 
284 107 108 106 
285 138 223 129 
286 133 171 130 
287 164 180 138 
288 81 86 84 
289 89 214 204 
290 169 215 145 
291 109 113 108 
292 155 156 124 
293 91 214 89 
294 131 162 138 
295 178 179 148 
296 113 133 130 
297 127 129 128 
298 205 214 213 
299 107 109 108 
300 24 50 25 
301 127 131 129 
302 133 174 171 
303 86 216 84 
304 118 150 111 
305 73 220 155 
306 148 222 146 
307 151 176 175 
308 23 220 24 
309 131 138 129 
310 144 146 145 
311 162 164 138 
312 147 221 149 
313 159 165 160 
314 94 99 96 
315 144 145 143 
316 180 223 138 
317 111 218 109 
318 129 223 135 
319 76 79 78 
320 25 49 24 
321 87 144 143 
322 146 168 145 
323 205 236 83 
324 199 232 177 
325 22 58 21 
326 79 81 80 
327 191 195 194 
328 109 218 113 
329 127 229 131 
330 26 226 27 
331 113 218 133 
332 22 247 23 
333 218 219 133 
334 151 175 150 
335 123 199 119 
336 133 219 174 
337 79 80 78 
338 78 105 77 
339 25 71 26 
340 144 216 147 
341 181 182 152 
342 100 117 102 
343 159 160 158 
344 179 222 148 
345 27 53 28 
346 21 59 22 
347 76 78 77 
348 143 215 212 
349 84 216 87 
350 28 52 27 
351 191 192 190 
352 146 222 168 
353 150 218 111 
354 83 224 80 
355 135 181 152 
356 73 124 74 
357 27 248 26 
358 94 212 99 
359 105 229 127 
360 206 250 230 
361 74 75 72 
362 145 215 143 
363 50 73 72 
364 115 191 190 
365 76 77 75 
366 156 158 157 
367 156 157 124 
368 208 254 210 
369 166 167 134 
370 20 227 21 
371 78 224 105 
372 191 194 192 
373 253 260 159 
374 74 76 75 
375 165 170 160 
376 230 250 117 
377 80 224 78 
378 73 74 72 
379 150 219 218 
380 24 220 50 
381 196 268 54 
382 163 249 162 
383 71 226 26 
384 87 216 144 
385 224 229 105 
386 28 234 29 
387 211 256 49 
388 29 228 28 
389 96 230 100 
390 23 247 220 
391 65 238 10 
392 20 68 19 
393 19 69 20 
394 99 230 96 
395 212 215 99 
396 191 233 195 
397 159 260 165 
398 206 230 99 
399 50 71 25 
400 100 230 117 
401 59 247 22 
402 249 252 162 
403 83 236 224 
404 134 232 123 
405 27 226 53 
406 76 231 79 
407 52 248 27 
408 66 239 40 
409 50 72 71 
410 135 223 181 
411 124 231 74 
412 173 250 206 
413 157 231 124 
414 11 238 48 
415 50 220 73 
416 149 262 178 
417 158 251 157 
418 74 231 76 
419 130 249 114 
420 142 270 166 
421 162 252 164 
422 86 251 221 
423 123 232 199 
424 29 61 30 
425 30 60 29 
426 117 233 102 
427 276 300 192 
428 153 267 142 
429 39 239 51 
430 175 219 150 
431 21 227 59 
432 167 232 134 
433 171 252 130 
434 102 233 115 
435 184 263 153 
436 210 263 184 
437 224 236 229 
438 115 233 191 
439 225 226 71 
440 229 236 163 
441 53 234 28 
442 28 228 52 
443 25 255 49 
444 130 252 249 
445 248 255 26 
446 198 266 58 
447 213 241 205 
448 49 256 24 
449 79 240 81 
450 200 261 243 
451 26 255 25 
452 69 227 20 
453 221 258 149 
454 241 249 163 
455 49 255 254 
456 22 257 58 
457 220 247 155 
458 197 259 140 
459 24 256 23 
460 31 235 30 
461 157 251 240 
462 29 234 61 
463 60 228 29 
464 198 269 266 
465 158 258 251 
466 23 257 22 
467 194 276 192 
468 256 257 23 
469 141 265 261 
470 10 238 11 
471 258 262 149 
472 251 258 221 
473 160 258 158 
474 155 253 156 
475 40 239 39 
476 254 255 210 
477 140 259 161 
478 252 274 164 
479 58 266 21 
480 237 277 61 
481 205 241 236 
482 171 274 252 
483 248 263 210 
484 263 267 153 
485 157 240 231 
486 30 235 60 
487 176 278 175 
488 201 243 225 
489 260 264 165 
490 231 240 79 
491 227 260 59 
492 160 262 258 
493 20 266 68 
494 267 270 142 
495 170 262 160 
496 210 255 248 
497 54 268 42 
498 270 272 166 
499 53 261 234 
500 226 243 53 
501 41 268 66 
502 236 241 163 
503 179 279 222 
504 52 263 248 
505 47 271 46 
506 33 273 32 
507 243 261 53 
508 59 260 253 
509 225 243 226 
510 17 275 18 
511 21 266 20 
512 227 264 260 
513 45 276 44 
514 59 253 247 
515 52 267 263 
516 180 282 56 
517 261 265 234 
518 69 264 227 
519 67 294 275 
520 70 277 237 
521 228 267 52 
522 234 265 61 
523 247 253 155 
524 193 269 198 
525 228 270 267 
526 61 277 30 
527 60 270 228 
528 276 288 44 
529 62 300 276 
530 42 268 41 
531 60 272 270 
532 46 271 62 
533 63 273 33 
534 235 272 60 
535 12 278 13 
536 67 275 17 
537 38 279 37 
538 62 276 45 
539 30 277 31 
540 195 281 196 
541 194 288 276 
542 37 283 36 
543 13 284 14 
544 166 294 167 
545 70 290 4 
546 5 290 64 
547 43 288 54 
548 165 289 170 
549 233 281 195 
550 238 298 48 
551 222 296 168 
552 180 287 223 
553 250 281 117 
554 66 299 239 
555 174 298 238 
556 2 291 47 
557 32 292 2 
558 18 295 1 
559 65 293 238 
560 19 291 2 
561 2 292 19 
562 262 285 178 
563 232 286 177 
564 239 299 172 
565 1 295 31 
566 175 298 219 
567 1 297 3 
568 171 293 274 
569 164 282 180 
570 239 296 51 
571 238 293 174 
572 31 297 1 
573 245 285 170 
574 172 296 239 
575 193 300 269 
576 246 282 274 
577 48 278 12 
578 268 280 66 
579 181 287 64 
580 242 286 167 
581 51 279 38 
582 55 285 245 
583 64 287 244 
584 57 286 242 
585 196 280 268 
586 117 281 233 
587 274 282 164 
588 36 283 55 
589 14 284 57 
590 56 282 246 
591 47 291 271 
592 273 292 32 
593 275 295 18 
594 173 299 280 
595 167 286 232 
596 223 287 181 
597 3 297 70 
598 44 288 43 
599 170 285 262 
600 4 290 5 
601 174 293 171 
602 172 299 173 
603 168 296 172 
604 271 291 68 
605 69 292 273 
606 192 300 193 
607 219 298 174 
608 68 291 19 
609 19 292 69 
610 235 295 275 
611 31 295 235 
612 264 289 165 
613 70 297 277 
614 272 294 166 
615 277 297 31 
616 280 299 66 
$EndElements
